<?xml version="1.0" encoding="utf-8" standalone="no"?>
<!DOCTYPE svg PUBLIC "-//W3C//DTD SVG 1.1//EN"
  "http://www.w3.org/Graphics/SVG/1.1/DTD/svg11.dtd">
<svg xmlns:xlink="http://www.w3.org/1999/xlink" width="460.8pt" height="345.6pt" viewBox="0 0 460.8 345.6" xmlns="http://www.w3.org/2000/svg" version="1.1">
 <metadata>
  <rdf:RDF xmlns:dc="http://purl.org/dc/elements/1.1/" xmlns:cc="http://creativecommons.org/ns#" xmlns:rdf="http://www.w3.org/1999/02/22-rdf-syntax-ns#">
   <cc:Work>
    <dc:type rdf:resource="http://purl.org/dc/dcmitype/StillImage"/>
    <dc:date>2023-11-07T16:07:13.210383</dc:date>
    <dc:format>image/svg+xml</dc:format>
    <dc:creator>
     <cc:Agent>
      <dc:title>Matplotlib v3.8.1, https://matplotlib.org/</dc:title>
     </cc:Agent>
    </dc:creator>
   </cc:Work>
  </rdf:RDF>
 </metadata>
 <defs>
  <style type="text/css">*{stroke-linejoin: round; stroke-linecap: butt}</style>
 </defs>
 <g id="figure_1">
  <g id="patch_1">
   <path d="M 0 345.6 
L 460.8 345.6 
L 460.8 0 
L 0 0 
z
" style="fill: #ffffff"/>
  </g>
  <g id="axes_1">
   <g id="patch_2">
    <path d="M 57.6 307.584 
L 414.72 307.584 
L 414.72 41.472 
L 57.6 41.472 
z
" style="fill: #ffffff"/>
   </g>
   <g id="matplotlib.axis_1">
    <g id="xtick_1">
     <g id="line2d_1">
      <defs>
       <path id="m8453cbbecd" d="M 0 0 
L 0 3.5 
" style="stroke: #000000; stroke-width: 0.8"/>
      </defs>
      <g>
       <use xlink:href="#m8453cbbecd" x="73.832727" y="307.584" style="stroke: #000000; stroke-width: 0.8"/>
      </g>
     </g>
     <g id="text_1">
      <!-- 0 -->
      <g transform="translate(70.651477 322.182437) scale(0.1 -0.1)">
       <defs>
        <path id="DejaVuSans-30" d="M 2034 4250 
Q 1547 4250 1301 3770 
Q 1056 3291 1056 2328 
Q 1056 1369 1301 889 
Q 1547 409 2034 409 
Q 2525 409 2770 889 
Q 3016 1369 3016 2328 
Q 3016 3291 2770 3770 
Q 2525 4250 2034 4250 
z
M 2034 4750 
Q 2819 4750 3233 4129 
Q 3647 3509 3647 2328 
Q 3647 1150 3233 529 
Q 2819 -91 2034 -91 
Q 1250 -91 836 529 
Q 422 1150 422 2328 
Q 422 3509 836 4129 
Q 1250 4750 2034 4750 
z
" transform="scale(0.015625)"/>
       </defs>
       <use xlink:href="#DejaVuSans-30"/>
      </g>
     </g>
    </g>
    <g id="xtick_2">
     <g id="line2d_2">
      <g>
       <use xlink:href="#m8453cbbecd" x="153.094091" y="307.584" style="stroke: #000000; stroke-width: 0.8"/>
      </g>
     </g>
     <g id="text_2">
      <!-- 1000 -->
      <g transform="translate(140.369091 322.182437) scale(0.1 -0.1)">
       <defs>
        <path id="DejaVuSans-31" d="M 794 531 
L 1825 531 
L 1825 4091 
L 703 3866 
L 703 4441 
L 1819 4666 
L 2450 4666 
L 2450 531 
L 3481 531 
L 3481 0 
L 794 0 
L 794 531 
z
" transform="scale(0.015625)"/>
       </defs>
       <use xlink:href="#DejaVuSans-31"/>
       <use xlink:href="#DejaVuSans-30" x="63.623047"/>
       <use xlink:href="#DejaVuSans-30" x="127.246094"/>
       <use xlink:href="#DejaVuSans-30" x="190.869141"/>
      </g>
     </g>
    </g>
    <g id="xtick_3">
     <g id="line2d_3">
      <g>
       <use xlink:href="#m8453cbbecd" x="232.355455" y="307.584" style="stroke: #000000; stroke-width: 0.8"/>
      </g>
     </g>
     <g id="text_3">
      <!-- 2000 -->
      <g transform="translate(219.630455 322.182437) scale(0.1 -0.1)">
       <defs>
        <path id="DejaVuSans-32" d="M 1228 531 
L 3431 531 
L 3431 0 
L 469 0 
L 469 531 
Q 828 903 1448 1529 
Q 2069 2156 2228 2338 
Q 2531 2678 2651 2914 
Q 2772 3150 2772 3378 
Q 2772 3750 2511 3984 
Q 2250 4219 1831 4219 
Q 1534 4219 1204 4116 
Q 875 4013 500 3803 
L 500 4441 
Q 881 4594 1212 4672 
Q 1544 4750 1819 4750 
Q 2544 4750 2975 4387 
Q 3406 4025 3406 3419 
Q 3406 3131 3298 2873 
Q 3191 2616 2906 2266 
Q 2828 2175 2409 1742 
Q 1991 1309 1228 531 
z
" transform="scale(0.015625)"/>
       </defs>
       <use xlink:href="#DejaVuSans-32"/>
       <use xlink:href="#DejaVuSans-30" x="63.623047"/>
       <use xlink:href="#DejaVuSans-30" x="127.246094"/>
       <use xlink:href="#DejaVuSans-30" x="190.869141"/>
      </g>
     </g>
    </g>
    <g id="xtick_4">
     <g id="line2d_4">
      <g>
       <use xlink:href="#m8453cbbecd" x="311.616818" y="307.584" style="stroke: #000000; stroke-width: 0.8"/>
      </g>
     </g>
     <g id="text_4">
      <!-- 3000 -->
      <g transform="translate(298.891818 322.182437) scale(0.1 -0.1)">
       <defs>
        <path id="DejaVuSans-33" d="M 2597 2516 
Q 3050 2419 3304 2112 
Q 3559 1806 3559 1356 
Q 3559 666 3084 287 
Q 2609 -91 1734 -91 
Q 1441 -91 1130 -33 
Q 819 25 488 141 
L 488 750 
Q 750 597 1062 519 
Q 1375 441 1716 441 
Q 2309 441 2620 675 
Q 2931 909 2931 1356 
Q 2931 1769 2642 2001 
Q 2353 2234 1838 2234 
L 1294 2234 
L 1294 2753 
L 1863 2753 
Q 2328 2753 2575 2939 
Q 2822 3125 2822 3475 
Q 2822 3834 2567 4026 
Q 2313 4219 1838 4219 
Q 1578 4219 1281 4162 
Q 984 4106 628 3988 
L 628 4550 
Q 988 4650 1302 4700 
Q 1616 4750 1894 4750 
Q 2613 4750 3031 4423 
Q 3450 4097 3450 3541 
Q 3450 3153 3228 2886 
Q 3006 2619 2597 2516 
z
" transform="scale(0.015625)"/>
       </defs>
       <use xlink:href="#DejaVuSans-33"/>
       <use xlink:href="#DejaVuSans-30" x="63.623047"/>
       <use xlink:href="#DejaVuSans-30" x="127.246094"/>
       <use xlink:href="#DejaVuSans-30" x="190.869141"/>
      </g>
     </g>
    </g>
    <g id="xtick_5">
     <g id="line2d_5">
      <g>
       <use xlink:href="#m8453cbbecd" x="390.878182" y="307.584" style="stroke: #000000; stroke-width: 0.8"/>
      </g>
     </g>
     <g id="text_5">
      <!-- 4000 -->
      <g transform="translate(378.153182 322.182437) scale(0.1 -0.1)">
       <defs>
        <path id="DejaVuSans-34" d="M 2419 4116 
L 825 1625 
L 2419 1625 
L 2419 4116 
z
M 2253 4666 
L 3047 4666 
L 3047 1625 
L 3713 1625 
L 3713 1100 
L 3047 1100 
L 3047 0 
L 2419 0 
L 2419 1100 
L 313 1100 
L 313 1709 
L 2253 4666 
z
" transform="scale(0.015625)"/>
       </defs>
       <use xlink:href="#DejaVuSans-34"/>
       <use xlink:href="#DejaVuSans-30" x="63.623047"/>
       <use xlink:href="#DejaVuSans-30" x="127.246094"/>
       <use xlink:href="#DejaVuSans-30" x="190.869141"/>
      </g>
     </g>
    </g>
    <g id="text_6">
     <!-- n -->
     <g transform="translate(232.99125 335.860562) scale(0.1 -0.1)">
      <defs>
       <path id="DejaVuSans-6e" d="M 3513 2113 
L 3513 0 
L 2938 0 
L 2938 2094 
Q 2938 2591 2744 2837 
Q 2550 3084 2163 3084 
Q 1697 3084 1428 2787 
Q 1159 2491 1159 1978 
L 1159 0 
L 581 0 
L 581 3500 
L 1159 3500 
L 1159 2956 
Q 1366 3272 1645 3428 
Q 1925 3584 2291 3584 
Q 2894 3584 3203 3211 
Q 3513 2838 3513 2113 
z
" transform="scale(0.015625)"/>
      </defs>
      <use xlink:href="#DejaVuSans-6e"/>
     </g>
    </g>
   </g>
   <g id="matplotlib.axis_2">
    <g id="ytick_1">
     <g id="line2d_6">
      <defs>
       <path id="m98145f2c25" d="M 0 0 
L -3.5 0 
" style="stroke: #000000; stroke-width: 0.8"/>
      </defs>
      <g>
       <use xlink:href="#m98145f2c25" x="57.6" y="276.048" style="stroke: #000000; stroke-width: 0.8"/>
      </g>
     </g>
     <g id="text_7">
      <!-- 80 -->
      <g transform="translate(37.875 279.847219) scale(0.1 -0.1)">
       <defs>
        <path id="DejaVuSans-38" d="M 2034 2216 
Q 1584 2216 1326 1975 
Q 1069 1734 1069 1313 
Q 1069 891 1326 650 
Q 1584 409 2034 409 
Q 2484 409 2743 651 
Q 3003 894 3003 1313 
Q 3003 1734 2745 1975 
Q 2488 2216 2034 2216 
z
M 1403 2484 
Q 997 2584 770 2862 
Q 544 3141 544 3541 
Q 544 4100 942 4425 
Q 1341 4750 2034 4750 
Q 2731 4750 3128 4425 
Q 3525 4100 3525 3541 
Q 3525 3141 3298 2862 
Q 3072 2584 2669 2484 
Q 3125 2378 3379 2068 
Q 3634 1759 3634 1313 
Q 3634 634 3220 271 
Q 2806 -91 2034 -91 
Q 1263 -91 848 271 
Q 434 634 434 1313 
Q 434 1759 690 2068 
Q 947 2378 1403 2484 
z
M 1172 3481 
Q 1172 3119 1398 2916 
Q 1625 2713 2034 2713 
Q 2441 2713 2670 2916 
Q 2900 3119 2900 3481 
Q 2900 3844 2670 4047 
Q 2441 4250 2034 4250 
Q 1625 4250 1398 4047 
Q 1172 3844 1172 3481 
z
" transform="scale(0.015625)"/>
       </defs>
       <use xlink:href="#DejaVuSans-38"/>
       <use xlink:href="#DejaVuSans-30" x="63.623047"/>
      </g>
     </g>
    </g>
    <g id="ytick_2">
     <g id="line2d_7">
      <g>
       <use xlink:href="#m98145f2c25" x="57.6" y="232.848" style="stroke: #000000; stroke-width: 0.8"/>
      </g>
     </g>
     <g id="text_8">
      <!-- 100 -->
      <g transform="translate(31.5125 236.647219) scale(0.1 -0.1)">
       <use xlink:href="#DejaVuSans-31"/>
       <use xlink:href="#DejaVuSans-30" x="63.623047"/>
       <use xlink:href="#DejaVuSans-30" x="127.246094"/>
      </g>
     </g>
    </g>
    <g id="ytick_3">
     <g id="line2d_8">
      <g>
       <use xlink:href="#m98145f2c25" x="57.6" y="189.648" style="stroke: #000000; stroke-width: 0.8"/>
      </g>
     </g>
     <g id="text_9">
      <!-- 120 -->
      <g transform="translate(31.5125 193.447219) scale(0.1 -0.1)">
       <use xlink:href="#DejaVuSans-31"/>
       <use xlink:href="#DejaVuSans-32" x="63.623047"/>
       <use xlink:href="#DejaVuSans-30" x="127.246094"/>
      </g>
     </g>
    </g>
    <g id="ytick_4">
     <g id="line2d_9">
      <g>
       <use xlink:href="#m98145f2c25" x="57.6" y="146.448" style="stroke: #000000; stroke-width: 0.8"/>
      </g>
     </g>
     <g id="text_10">
      <!-- 140 -->
      <g transform="translate(31.5125 150.247219) scale(0.1 -0.1)">
       <use xlink:href="#DejaVuSans-31"/>
       <use xlink:href="#DejaVuSans-34" x="63.623047"/>
       <use xlink:href="#DejaVuSans-30" x="127.246094"/>
      </g>
     </g>
    </g>
    <g id="ytick_5">
     <g id="line2d_10">
      <g>
       <use xlink:href="#m98145f2c25" x="57.6" y="103.248" style="stroke: #000000; stroke-width: 0.8"/>
      </g>
     </g>
     <g id="text_11">
      <!-- 160 -->
      <g transform="translate(31.5125 107.047219) scale(0.1 -0.1)">
       <defs>
        <path id="DejaVuSans-36" d="M 2113 2584 
Q 1688 2584 1439 2293 
Q 1191 2003 1191 1497 
Q 1191 994 1439 701 
Q 1688 409 2113 409 
Q 2538 409 2786 701 
Q 3034 994 3034 1497 
Q 3034 2003 2786 2293 
Q 2538 2584 2113 2584 
z
M 3366 4563 
L 3366 3988 
Q 3128 4100 2886 4159 
Q 2644 4219 2406 4219 
Q 1781 4219 1451 3797 
Q 1122 3375 1075 2522 
Q 1259 2794 1537 2939 
Q 1816 3084 2150 3084 
Q 2853 3084 3261 2657 
Q 3669 2231 3669 1497 
Q 3669 778 3244 343 
Q 2819 -91 2113 -91 
Q 1303 -91 875 529 
Q 447 1150 447 2328 
Q 447 3434 972 4092 
Q 1497 4750 2381 4750 
Q 2619 4750 2861 4703 
Q 3103 4656 3366 4563 
z
" transform="scale(0.015625)"/>
       </defs>
       <use xlink:href="#DejaVuSans-31"/>
       <use xlink:href="#DejaVuSans-36" x="63.623047"/>
       <use xlink:href="#DejaVuSans-30" x="127.246094"/>
      </g>
     </g>
    </g>
    <g id="ytick_6">
     <g id="line2d_11">
      <g>
       <use xlink:href="#m98145f2c25" x="57.6" y="60.048" style="stroke: #000000; stroke-width: 0.8"/>
      </g>
     </g>
     <g id="text_12">
      <!-- 180 -->
      <g transform="translate(31.5125 63.847219) scale(0.1 -0.1)">
       <use xlink:href="#DejaVuSans-31"/>
       <use xlink:href="#DejaVuSans-38" x="63.623047"/>
       <use xlink:href="#DejaVuSans-30" x="127.246094"/>
      </g>
     </g>
    </g>
    <g id="text_13">
     <!-- Cycles -->
     <g transform="translate(25.432812 190.798312) rotate(-90) scale(0.1 -0.1)">
      <defs>
       <path id="DejaVuSans-43" d="M 4122 4306 
L 4122 3641 
Q 3803 3938 3442 4084 
Q 3081 4231 2675 4231 
Q 1875 4231 1450 3742 
Q 1025 3253 1025 2328 
Q 1025 1406 1450 917 
Q 1875 428 2675 428 
Q 3081 428 3442 575 
Q 3803 722 4122 1019 
L 4122 359 
Q 3791 134 3420 21 
Q 3050 -91 2638 -91 
Q 1578 -91 968 557 
Q 359 1206 359 2328 
Q 359 3453 968 4101 
Q 1578 4750 2638 4750 
Q 3056 4750 3426 4639 
Q 3797 4528 4122 4306 
z
" transform="scale(0.015625)"/>
       <path id="DejaVuSans-79" d="M 2059 -325 
Q 1816 -950 1584 -1140 
Q 1353 -1331 966 -1331 
L 506 -1331 
L 506 -850 
L 844 -850 
Q 1081 -850 1212 -737 
Q 1344 -625 1503 -206 
L 1606 56 
L 191 3500 
L 800 3500 
L 1894 763 
L 2988 3500 
L 3597 3500 
L 2059 -325 
z
" transform="scale(0.015625)"/>
       <path id="DejaVuSans-63" d="M 3122 3366 
L 3122 2828 
Q 2878 2963 2633 3030 
Q 2388 3097 2138 3097 
Q 1578 3097 1268 2742 
Q 959 2388 959 1747 
Q 959 1106 1268 751 
Q 1578 397 2138 397 
Q 2388 397 2633 464 
Q 2878 531 3122 666 
L 3122 134 
Q 2881 22 2623 -34 
Q 2366 -91 2075 -91 
Q 1284 -91 818 406 
Q 353 903 353 1747 
Q 353 2603 823 3093 
Q 1294 3584 2113 3584 
Q 2378 3584 2631 3529 
Q 2884 3475 3122 3366 
z
" transform="scale(0.015625)"/>
       <path id="DejaVuSans-6c" d="M 603 4863 
L 1178 4863 
L 1178 0 
L 603 0 
L 603 4863 
z
" transform="scale(0.015625)"/>
       <path id="DejaVuSans-65" d="M 3597 1894 
L 3597 1613 
L 953 1613 
Q 991 1019 1311 708 
Q 1631 397 2203 397 
Q 2534 397 2845 478 
Q 3156 559 3463 722 
L 3463 178 
Q 3153 47 2828 -22 
Q 2503 -91 2169 -91 
Q 1331 -91 842 396 
Q 353 884 353 1716 
Q 353 2575 817 3079 
Q 1281 3584 2069 3584 
Q 2775 3584 3186 3129 
Q 3597 2675 3597 1894 
z
M 3022 2063 
Q 3016 2534 2758 2815 
Q 2500 3097 2075 3097 
Q 1594 3097 1305 2825 
Q 1016 2553 972 2059 
L 3022 2063 
z
" transform="scale(0.015625)"/>
       <path id="DejaVuSans-73" d="M 2834 3397 
L 2834 2853 
Q 2591 2978 2328 3040 
Q 2066 3103 1784 3103 
Q 1356 3103 1142 2972 
Q 928 2841 928 2578 
Q 928 2378 1081 2264 
Q 1234 2150 1697 2047 
L 1894 2003 
Q 2506 1872 2764 1633 
Q 3022 1394 3022 966 
Q 3022 478 2636 193 
Q 2250 -91 1575 -91 
Q 1294 -91 989 -36 
Q 684 19 347 128 
L 347 722 
Q 666 556 975 473 
Q 1284 391 1588 391 
Q 1994 391 2212 530 
Q 2431 669 2431 922 
Q 2431 1156 2273 1281 
Q 2116 1406 1581 1522 
L 1381 1569 
Q 847 1681 609 1914 
Q 372 2147 372 2553 
Q 372 3047 722 3315 
Q 1072 3584 1716 3584 
Q 2034 3584 2315 3537 
Q 2597 3491 2834 3397 
z
" transform="scale(0.015625)"/>
      </defs>
      <use xlink:href="#DejaVuSans-43"/>
      <use xlink:href="#DejaVuSans-79" x="69.824219"/>
      <use xlink:href="#DejaVuSans-63" x="129.003906"/>
      <use xlink:href="#DejaVuSans-6c" x="183.984375"/>
      <use xlink:href="#DejaVuSans-65" x="211.767578"/>
      <use xlink:href="#DejaVuSans-73" x="273.291016"/>
     </g>
    </g>
   </g>
   <g id="line2d_12">
    <path d="M 73.832727 150.768 
L 73.99125 150.768 
L 74.070511 172.368 
L 74.229034 155.088 
L 74.308295 155.088 
L 74.387557 129.168 
L 74.625341 172.368 
L 74.704602 172.368 
L 74.783864 200.448 
L 74.942386 178.848 
L 75.021648 172.368 
L 75.18017 155.088 
L 75.259432 148.608 
L 75.417955 159.408 
L 75.655739 159.408 
L 75.814261 168.048 
L 75.893523 168.048 
L 76.052045 172.368 
L 76.131307 172.368 
L 76.28983 168.048 
L 76.369091 168.048 
L 76.527614 163.728 
L 76.686136 168.048 
L 76.844659 159.408 
L 77.003182 165.888 
L 77.161705 172.368 
L 77.399489 168.048 
L 77.558011 170.208 
L 77.716534 165.888 
L 77.954318 181.008 
L 78.192102 161.568 
L 78.350625 161.568 
L 78.509148 163.728 
L 78.66767 150.768 
L 78.905455 150.768 
L 78.984716 124.848 
L 79.143239 142.128 
L 79.381023 159.408 
L 79.460284 159.408 
L 79.618807 142.128 
L 79.77733 163.728 
L 79.935852 159.408 
L 80.094375 170.208 
L 80.252898 150.768 
L 80.41142 181.008 
L 80.490682 172.368 
L 80.649205 172.368 
L 80.807727 206.928 
L 81.045511 155.088 
L 81.204034 170.208 
L 81.441818 163.728 
L 81.600341 150.768 
L 81.758864 150.768 
L 81.838125 185.328 
L 81.917386 150.768 
L 82.075909 172.368 
L 82.15517 172.368 
L 82.234432 176.688 
L 82.313693 163.728 
L 82.392955 170.208 
L 82.472216 150.768 
L 82.630739 170.208 
L 82.789261 170.208 
L 82.868523 163.728 
L 82.947784 176.688 
L 83.027045 172.368 
L 83.185568 172.368 
L 83.26483 165.888 
L 83.423352 142.128 
L 83.581875 165.888 
L 83.740398 146.448 
L 83.819659 150.768 
L 84.057443 150.768 
L 84.136705 183.168 
L 84.215966 172.368 
L 84.374489 172.368 
L 84.45375 150.768 
L 84.691534 215.568 
L 84.770795 217.728 
L 85.00858 211.248 
L 85.167102 165.888 
L 85.246364 163.728 
L 85.484148 129.168 
L 85.64267 165.888 
L 85.721932 155.088 
L 85.801193 165.888 
L 85.880455 157.248 
L 85.959716 168.048 
L 86.118239 152.928 
L 86.1975 152.928 
L 86.356023 176.688 
L 86.514545 159.408 
L 86.75233 176.688 
L 86.910852 211.248 
L 87.069375 215.568 
L 87.227898 159.408 
L 87.307159 142.128 
L 87.544943 185.328 
L 87.703466 163.728 
L 87.782727 163.728 
L 87.861989 170.208 
L 88.179034 152.928 
L 88.258295 152.928 
L 88.416818 146.448 
L 88.49608 152.928 
L 88.654602 174.528 
L 88.813125 168.048 
L 88.892386 168.048 
L 89.367955 146.448 
L 89.447216 148.608 
L 89.526477 120.528 
L 89.685 163.728 
L 89.764261 163.728 
L 90.002045 172.368 
L 90.081307 172.368 
L 90.23983 150.768 
L 90.477614 202.608 
L 90.636136 150.768 
L 90.794659 142.128 
L 90.87392 146.448 
L 90.953182 142.128 
L 91.111705 155.088 
L 91.270227 168.048 
L 91.42875 176.688 
L 91.825057 157.248 
L 91.904318 157.248 
L 91.98358 142.128 
L 92.062841 144.288 
L 92.221364 144.288 
L 92.379886 172.368 
L 92.459148 172.368 
L 92.696932 155.088 
L 92.855455 170.208 
L 93.013977 146.448 
L 93.251761 137.808 
L 93.410284 172.368 
L 93.489545 174.528 
L 93.568807 172.368 
L 93.72733 150.768 
L 93.885852 181.008 
L 94.044375 150.768 
L 94.202898 163.728 
L 94.282159 163.728 
L 94.519943 185.328 
L 94.757727 120.528 
L 94.836989 120.528 
L 94.995511 159.408 
L 95.074773 142.128 
L 95.233295 168.048 
L 95.391818 168.048 
L 95.47108 172.368 
L 95.550341 168.048 
L 95.629602 172.368 
L 95.788125 148.608 
L 95.946648 146.448 
L 96.10517 176.688 
L 96.263693 133.488 
L 96.580739 187.488 
L 96.66 181.008 
L 96.739261 189.648 
L 96.897784 176.688 
L 97.056307 176.688 
L 97.21483 133.488 
L 97.373352 181.008 
L 97.531875 163.728 
L 97.84892 163.728 
L 98.007443 155.088 
L 98.086705 155.088 
L 98.245227 137.808 
L 98.324489 148.608 
L 98.40375 137.808 
L 98.483011 168.048 
L 98.562273 163.728 
L 98.641534 168.048 
L 98.95858 209.088 
L 99.037841 209.088 
L 99.196364 116.208 
L 99.275625 133.488 
L 99.354886 116.208 
L 99.513409 133.488 
L 99.59267 133.488 
L 99.751193 124.848 
L 99.909716 150.768 
L 99.988977 155.088 
L 100.068239 94.608 
L 100.226761 159.408 
L 100.306023 159.408 
L 100.464545 124.848 
L 100.543807 124.848 
L 100.70233 155.088 
L 100.940114 155.088 
L 101.019375 172.368 
L 101.098636 137.808 
L 101.177898 172.368 
L 101.257159 122.688 
L 101.574205 189.648 
L 101.732727 181.008 
L 101.89125 211.248 
L 102.049773 142.128 
L 102.129034 142.128 
L 102.287557 155.088 
L 102.366818 155.088 
L 102.525341 137.808 
L 102.683864 168.048 
L 102.763125 168.048 
L 102.842386 163.728 
L 103.000909 129.168 
L 103.08017 120.528 
L 103.238693 161.568 
L 103.397216 161.568 
L 103.476477 150.768 
L 103.714261 172.368 
L 103.793523 172.368 
L 103.952045 90.288 
L 104.110568 174.528 
L 104.348352 165.888 
L 104.506875 172.368 
L 104.586136 172.368 
L 104.744659 146.448 
L 104.82392 146.448 
L 104.982443 163.728 
L 105.140966 146.448 
L 105.299489 159.408 
L 105.37875 150.768 
L 105.695795 185.328 
L 105.854318 129.168 
L 105.93358 120.528 
L 106.012841 155.088 
L 106.171364 66.528 
L 106.250625 66.528 
L 106.409148 183.168 
L 106.56767 150.768 
L 106.646932 172.368 
L 106.726193 142.128 
L 106.805455 163.728 
L 106.884716 159.408 
L 106.963977 159.408 
L 107.1225 150.768 
L 107.439545 189.648 
L 107.518807 170.208 
L 107.598068 185.328 
L 107.835852 150.768 
L 107.994375 150.768 
L 108.152898 142.128 
L 108.31142 168.048 
L 108.469943 159.408 
L 108.628466 137.808 
L 108.86625 189.648 
L 108.945511 183.168 
L 109.024773 189.648 
L 109.104034 163.728 
L 109.183295 196.128 
L 109.341818 155.088 
L 109.42108 155.088 
L 109.579602 178.848 
L 109.658864 163.728 
L 109.738125 172.368 
L 109.817386 114.048 
L 109.896648 116.208 
L 109.975909 116.208 
L 110.134432 181.008 
L 110.292955 161.568 
L 110.372216 159.408 
L 110.451477 161.568 
L 110.530739 116.208 
L 110.689261 189.648 
L 110.768523 189.648 
L 111.085568 150.768 
L 111.244091 168.048 
L 111.402614 168.048 
L 111.561136 176.688 
L 111.957443 142.128 
L 112.115966 163.728 
L 112.195227 163.728 
L 112.35375 150.768 
L 112.512273 94.608 
L 112.591534 107.568 
L 112.670795 159.408 
L 112.829318 133.488 
L 112.987841 133.488 
L 113.146364 168.048 
L 113.384148 163.728 
L 113.54267 146.448 
L 113.621932 146.448 
L 113.780455 150.768 
L 113.859716 150.768 
L 113.938977 161.568 
L 114.018239 137.808 
L 114.0975 168.048 
L 114.176761 163.728 
L 114.256023 163.728 
L 114.414545 53.568 
L 114.573068 133.488 
L 114.65233 133.488 
L 114.810852 146.448 
L 114.969375 172.368 
L 115.127898 165.888 
L 115.207159 165.888 
L 115.365682 150.768 
L 115.444943 163.728 
L 115.524205 198.288 
L 115.682727 146.448 
L 115.84125 146.448 
L 115.920511 150.768 
L 115.999773 172.368 
L 116.237557 137.808 
L 116.316818 137.808 
L 116.39608 146.448 
L 116.475341 120.528 
L 116.713125 183.168 
L 116.871648 146.448 
L 117.188693 176.688 
L 117.347216 172.368 
L 117.426477 172.368 
L 117.585 174.528 
L 117.743523 146.448 
L 117.822784 152.928 
L 117.902045 146.448 
L 117.981307 155.088 
L 118.060568 146.448 
L 118.13983 155.088 
L 118.219091 150.768 
L 118.298352 159.408 
L 118.615398 133.488 
L 118.77392 163.728 
L 118.853182 163.728 
L 118.932443 168.048 
L 119.011705 159.408 
L 119.249489 174.528 
L 119.725057 161.568 
L 119.88358 165.888 
L 119.962841 165.888 
L 120.279886 172.368 
L 120.359148 163.728 
L 120.438409 176.688 
L 120.51767 172.368 
L 120.676193 176.688 
L 120.755455 176.688 
L 121.151761 155.088 
L 121.389545 163.728 
L 121.468807 163.728 
L 121.62733 213.408 
L 121.785852 159.408 
L 121.944375 161.568 
L 122.023636 176.688 
L 122.102898 157.248 
L 122.26142 185.328 
L 122.340682 185.328 
L 122.499205 170.208 
L 122.578466 170.208 
L 122.81625 137.808 
L 122.974773 191.808 
L 123.133295 163.728 
L 123.212557 163.728 
L 123.37108 168.048 
L 123.529602 129.168 
L 123.688125 168.048 
L 123.767386 165.888 
L 123.846648 159.408 
L 124.00517 163.728 
L 124.084432 163.728 
L 124.242955 157.248 
L 124.401477 172.368 
L 124.480739 168.048 
L 124.56 174.528 
L 124.639261 163.728 
L 124.718523 174.528 
L 125.035568 137.808 
L 125.11483 137.808 
L 125.273352 174.528 
L 125.511136 161.568 
L 125.590398 161.568 
L 125.669659 159.408 
L 125.74892 172.368 
L 125.828182 168.048 
L 125.986705 168.048 
L 126.145227 142.128 
L 126.30375 133.488 
L 126.462273 146.448 
L 126.541534 146.448 
L 126.700057 111.888 
L 126.937841 198.288 
L 127.017102 129.168 
L 127.096364 150.768 
L 127.175625 150.768 
L 127.334148 155.088 
L 127.413409 155.088 
L 127.651193 174.528 
L 127.888977 155.088 
L 128.0475 137.808 
L 128.206023 168.048 
L 128.364545 168.048 
L 128.60233 191.808 
L 128.760852 185.328 
L 128.919375 185.328 
L 129.077898 172.368 
L 129.157159 172.368 
L 129.315682 155.088 
L 129.394943 155.088 
L 129.632727 183.168 
L 129.711989 181.008 
L 129.870511 181.008 
L 130.029034 142.128 
L 130.187557 172.368 
L 130.34608 150.768 
L 130.504602 172.368 
L 130.583864 178.848 
L 130.742386 172.368 
L 130.821648 172.368 
L 131.059432 133.488 
L 131.217955 176.688 
L 131.297216 176.688 
L 131.535 83.808 
L 131.614261 161.568 
L 131.693523 83.808 
L 131.852045 172.368 
L 132.010568 181.008 
L 132.08983 181.008 
L 132.327614 155.088 
L 132.486136 150.768 
L 132.565398 150.768 
L 132.644659 155.088 
L 132.72392 172.368 
L 132.803182 155.088 
L 132.882443 174.528 
L 132.961705 168.048 
L 133.120227 168.048 
L 133.27875 172.368 
L 133.437273 161.568 
L 133.595795 163.728 
L 133.675057 163.728 
L 133.754318 142.128 
L 133.83358 165.888 
L 133.912841 142.128 
L 133.992102 146.448 
L 134.229886 124.848 
L 134.309148 124.848 
L 134.388409 146.448 
L 134.46767 94.608 
L 134.626193 176.688 
L 134.705455 176.688 
L 134.863977 150.768 
L 134.943239 150.768 
L 135.101761 120.528 
L 135.418807 185.328 
L 135.656591 120.528 
L 135.815114 152.928 
L 135.973636 124.848 
L 136.052898 124.848 
L 136.132159 111.888 
L 136.369943 178.848 
L 136.449205 178.848 
L 136.528466 176.688 
L 136.607727 170.208 
L 136.76625 146.448 
L 136.924773 165.888 
L 137.162557 157.248 
L 137.32108 150.768 
L 137.400341 150.768 
L 137.479602 155.088 
L 137.638125 172.368 
L 137.717386 172.368 
L 137.796648 163.728 
L 137.95517 120.528 
L 138.034432 122.688 
L 138.113693 170.208 
L 138.192955 159.408 
L 138.272216 163.728 
L 138.351477 159.408 
L 138.589261 168.048 
L 138.668523 159.408 
L 138.827045 137.808 
L 138.985568 211.248 
L 139.06483 211.248 
L 139.223352 181.008 
L 139.302614 181.008 
L 139.381875 172.368 
L 139.540398 96.768 
L 139.69892 183.168 
L 139.778182 191.808 
L 139.857443 172.368 
L 139.936705 191.808 
L 140.015966 172.368 
L 140.095227 176.688 
L 140.333011 168.048 
L 140.412273 168.048 
L 140.570795 155.088 
L 140.729318 172.368 
L 140.967102 172.368 
L 141.284148 129.168 
L 141.521932 181.008 
L 141.680455 159.408 
L 141.918239 159.408 
L 142.076761 142.128 
L 142.156023 142.128 
L 142.314545 176.688 
L 142.393807 159.408 
L 142.473068 168.048 
L 142.55233 161.568 
L 142.631591 168.048 
L 142.710852 161.568 
L 142.790114 183.168 
L 142.869375 137.808 
L 142.948636 152.928 
L 143.107159 152.928 
L 143.18642 155.088 
L 143.424205 170.208 
L 143.582727 152.928 
L 143.661989 152.928 
L 143.74125 133.488 
L 143.820511 161.568 
L 143.899773 155.088 
L 144.058295 174.528 
L 144.216818 174.528 
L 144.29608 202.608 
L 144.375341 150.768 
L 144.533864 172.368 
L 144.771648 198.288 
L 144.93017 170.208 
L 145.167955 159.408 
L 145.247216 159.408 
L 145.326477 161.568 
L 145.405739 168.048 
L 145.564261 163.728 
L 145.643523 163.728 
L 145.802045 165.888 
L 145.960568 163.728 
L 146.03983 163.728 
L 146.277614 172.368 
L 146.356875 172.368 
L 146.436136 168.048 
L 146.594659 157.248 
L 146.753182 176.688 
L 147.070227 150.768 
L 147.149489 111.888 
L 147.308011 172.368 
L 147.387273 172.368 
L 147.545795 168.048 
L 147.625057 168.048 
L 147.78358 124.848 
L 148.100625 185.328 
L 148.179886 185.328 
L 148.259148 178.848 
L 148.576193 133.488 
L 148.655455 133.488 
L 148.813977 163.728 
L 148.9725 137.808 
L 149.051761 137.808 
L 149.210284 146.448 
L 149.368807 120.528 
L 149.448068 120.528 
L 149.52733 142.128 
L 149.606591 116.208 
L 149.844375 200.448 
L 149.923636 200.448 
L 150.240682 150.768 
L 150.399205 150.768 
L 150.478466 176.688 
L 150.557727 168.048 
L 150.636989 178.848 
L 150.795511 142.128 
L 150.874773 92.448 
L 151.112557 187.488 
L 151.27108 187.488 
L 151.429602 168.048 
L 151.508864 168.048 
L 151.588125 170.208 
L 151.746648 181.008 
L 151.825909 185.328 
L 151.90517 163.728 
L 151.984432 165.888 
L 152.063693 163.728 
L 152.142955 165.888 
L 152.301477 159.408 
L 152.380739 159.408 
L 152.539261 172.368 
L 152.697784 150.768 
L 152.777045 150.768 
L 152.935568 129.168 
L 153.01483 129.168 
L 153.252614 172.368 
L 153.331875 155.088 
L 153.411136 161.568 
L 153.64892 133.488 
L 153.807443 159.408 
L 153.965966 107.568 
L 154.045227 120.528 
L 154.20375 163.728 
L 154.283011 155.088 
L 154.362273 165.888 
L 154.441534 159.408 
L 154.520795 217.728 
L 154.679318 152.928 
L 154.75858 152.928 
L 154.917102 155.088 
L 155.075625 155.088 
L 155.234148 211.248 
L 155.39267 219.888 
L 155.551193 163.728 
L 155.709716 172.368 
L 155.868239 172.368 
L 156.026761 168.048 
L 156.106023 168.048 
L 156.185284 161.568 
L 156.264545 181.008 
L 156.343807 129.168 
L 156.50233 161.568 
L 156.581591 161.568 
L 156.660852 181.008 
L 156.740114 176.688 
L 156.819375 176.688 
L 156.977898 172.368 
L 157.057159 172.368 
L 157.294943 155.088 
L 157.374205 163.728 
L 157.532727 185.328 
L 157.69125 176.688 
L 157.770511 176.688 
L 157.849773 181.008 
L 158.008295 209.088 
L 158.087557 209.088 
L 158.24608 217.728 
L 158.404602 168.048 
L 158.563125 168.048 
L 158.642386 150.768 
L 158.721648 172.368 
L 158.88017 142.128 
L 159.038693 142.128 
L 159.117955 176.688 
L 159.197216 172.368 
L 159.276477 172.368 
L 159.593523 163.728 
L 159.752045 150.768 
L 159.910568 155.088 
L 159.98983 155.088 
L 160.148352 133.488 
L 160.227614 133.488 
L 160.306875 155.088 
L 160.386136 144.288 
L 160.465398 155.088 
L 160.544659 150.768 
L 160.782443 159.408 
L 160.861705 159.408 
L 160.940966 133.488 
L 161.099489 146.448 
L 161.17875 146.448 
L 161.337273 200.448 
L 161.495795 168.048 
L 161.575057 168.048 
L 161.73358 142.128 
L 161.812841 155.088 
L 161.971364 200.448 
L 162.209148 103.248 
L 162.36767 168.048 
L 162.526193 178.848 
L 162.605455 174.528 
L 162.684716 178.848 
L 162.9225 163.728 
L 163.081023 111.888 
L 163.239545 150.768 
L 163.398068 155.088 
L 163.873636 155.088 
L 164.032159 150.768 
L 164.11142 155.088 
L 164.269943 176.688 
L 164.428466 176.688 
L 164.507727 165.888 
L 164.586989 181.008 
L 164.66625 165.888 
L 164.745511 176.688 
L 164.824773 155.088 
L 164.904034 176.688 
L 164.983295 168.048 
L 165.062557 181.008 
L 165.141818 176.688 
L 165.300341 181.008 
L 165.379602 181.008 
L 165.538125 116.208 
L 165.696648 176.688 
L 165.775909 176.688 
L 165.934432 170.208 
L 166.172216 165.888 
L 166.251477 155.088 
L 166.330739 181.008 
L 166.41 172.368 
L 166.568523 172.368 
L 166.885568 159.408 
L 167.044091 159.408 
L 167.202614 172.368 
L 167.361136 163.728 
L 167.519659 137.808 
L 167.59892 129.168 
L 167.678182 168.048 
L 167.836705 150.768 
L 167.995227 142.128 
L 168.15375 168.048 
L 168.391534 168.048 
L 168.470795 142.128 
L 168.550057 176.688 
L 168.629318 165.888 
L 168.70858 176.688 
L 168.787841 168.048 
L 168.867102 172.368 
L 169.104886 159.408 
L 169.263409 178.848 
L 169.34267 183.168 
L 169.501193 137.808 
L 169.580455 137.808 
L 169.738977 172.368 
L 169.8975 142.128 
L 170.214545 191.808 
L 170.373068 133.488 
L 170.610852 155.088 
L 170.769375 148.608 
L 170.848636 155.088 
L 171.007159 198.288 
L 171.165682 168.048 
L 171.244943 170.208 
L 171.403466 168.048 
L 171.561989 168.048 
L 171.64125 165.888 
L 171.799773 155.088 
L 171.879034 155.088 
L 172.037557 181.008 
L 172.116818 181.008 
L 172.19608 172.368 
L 172.354602 150.768 
L 172.433864 150.768 
L 172.513125 159.408 
L 172.592386 142.128 
L 172.671648 159.408 
L 172.750909 142.128 
L 172.83017 176.688 
L 172.909432 133.488 
L 173.067955 155.088 
L 173.305739 161.568 
L 173.385 172.368 
L 173.464261 161.568 
L 173.702045 172.368 
L 173.860568 172.368 
L 173.93983 168.048 
L 174.019091 172.368 
L 174.098352 155.088 
L 174.177614 159.408 
L 174.256875 150.768 
L 174.494659 172.368 
L 174.653182 172.368 
L 174.811705 133.488 
L 174.970227 161.568 
L 175.12875 161.568 
L 175.208011 163.728 
L 175.366534 174.528 
L 175.445795 174.528 
L 175.604318 150.768 
L 175.762841 146.448 
L 175.842102 118.368 
L 176.000625 150.768 
L 176.159148 165.888 
L 176.238409 165.888 
L 176.396932 172.368 
L 176.555455 172.368 
L 176.713977 176.688 
L 176.793239 176.688 
L 177.268807 122.688 
L 177.42733 168.048 
L 177.506591 168.048 
L 177.665114 172.368 
L 177.823636 159.408 
L 177.902898 159.408 
L 178.06142 137.808 
L 178.140682 137.808 
L 178.299205 178.848 
L 178.378466 168.048 
L 178.536989 107.568 
L 178.774773 159.408 
L 178.933295 155.088 
L 179.091818 172.368 
L 179.17108 174.528 
L 179.250341 172.368 
L 179.408864 142.128 
L 179.567386 183.168 
L 179.646648 183.168 
L 179.80517 157.248 
L 179.884432 159.408 
L 180.122216 181.008 
L 180.201477 181.008 
L 180.280739 185.328 
L 180.36 155.088 
L 180.439261 176.688 
L 180.518523 107.568 
L 180.677045 172.368 
L 180.835568 172.368 
L 180.994091 168.048 
L 181.152614 176.688 
L 181.311136 142.128 
L 181.390398 159.408 
L 181.469659 124.848 
L 181.628182 170.208 
L 181.945227 170.208 
L 182.024489 168.048 
L 182.262273 146.448 
L 182.341534 146.448 
L 182.579318 181.008 
L 182.737841 133.488 
L 182.896364 155.088 
L 182.975625 155.088 
L 183.451193 176.688 
L 183.530455 172.368 
L 183.609716 176.688 
L 183.8475 159.408 
L 184.006023 163.728 
L 184.164545 148.608 
L 184.481591 219.888 
L 184.640114 219.888 
L 184.798636 159.408 
L 184.957159 163.728 
L 185.194943 163.728 
L 185.274205 159.408 
L 185.353466 85.968 
L 185.432727 150.768 
L 185.511989 85.968 
L 185.749773 198.288 
L 185.987557 133.488 
L 186.14608 129.168 
L 186.383864 129.168 
L 186.542386 161.568 
L 186.700909 144.288 
L 186.78017 148.608 
L 187.017955 189.648 
L 187.097216 189.648 
L 187.255739 105.408 
L 187.414261 181.008 
L 187.572784 159.408 
L 187.88983 159.408 
L 188.048352 155.088 
L 188.206875 163.728 
L 188.365398 146.448 
L 188.52392 155.088 
L 188.682443 155.088 
L 188.761705 129.168 
L 188.920227 163.728 
L 188.999489 163.728 
L 189.158011 146.448 
L 189.237273 155.088 
L 189.316534 146.448 
L 189.395795 178.848 
L 189.475057 129.168 
L 189.554318 146.448 
L 189.63358 146.448 
L 189.792102 176.688 
L 189.950625 168.048 
L 190.029886 168.048 
L 190.109148 161.568 
L 190.188409 142.128 
L 190.26767 159.408 
L 190.346932 157.248 
L 190.426193 157.248 
L 190.584716 144.288 
L 190.743239 163.728 
L 190.8225 163.728 
L 190.901761 159.408 
L 190.981023 189.648 
L 191.060284 159.408 
L 191.139545 163.728 
L 191.218807 163.728 
L 191.37733 168.048 
L 191.535852 170.208 
L 191.694375 170.208 
L 191.773636 161.568 
L 191.932159 133.488 
L 192.090682 168.048 
L 192.169943 168.048 
L 192.328466 155.088 
L 192.486989 168.048 
L 192.724773 159.408 
L 192.804034 159.408 
L 192.883295 181.008 
L 192.962557 155.088 
L 193.12108 168.048 
L 193.279602 168.048 
L 193.438125 193.968 
L 193.675909 157.248 
L 193.75517 157.248 
L 193.992955 206.928 
L 194.151477 159.408 
L 194.230739 159.408 
L 194.389261 168.048 
L 194.547784 152.928 
L 194.627045 94.608 
L 194.785568 133.488 
L 194.86483 133.488 
L 195.023352 161.568 
L 195.102614 161.568 
L 195.181875 155.088 
L 195.261136 178.848 
L 195.419659 163.728 
L 195.49892 163.728 
L 195.657443 168.048 
L 195.815966 120.528 
L 195.974489 163.728 
L 196.212273 163.728 
L 196.450057 146.448 
L 196.529318 133.488 
L 196.767102 163.728 
L 196.925625 150.768 
L 197.004886 150.768 
L 197.163409 137.808 
L 197.321932 181.008 
L 197.401193 170.208 
L 197.559716 107.568 
L 197.718239 165.888 
L 197.7975 170.208 
L 197.956023 155.088 
L 198.035284 155.088 
L 198.193807 189.648 
L 198.273068 189.648 
L 198.35233 133.488 
L 198.431591 176.688 
L 198.510852 150.768 
L 198.669375 170.208 
L 198.827898 172.368 
L 199.303466 146.448 
L 199.461989 163.728 
L 199.54125 163.728 
L 199.699773 142.128 
L 199.779034 142.128 
L 199.858295 155.088 
L 199.937557 146.448 
L 200.016818 155.088 
L 200.09608 146.448 
L 200.333864 168.048 
L 200.571648 133.488 
L 200.650909 133.488 
L 200.967955 181.008 
L 201.126477 159.408 
L 201.364261 176.688 
L 201.602045 159.408 
L 201.681307 83.808 
L 201.83983 165.888 
L 201.919091 165.888 
L 202.077614 163.728 
L 202.156875 163.728 
L 202.315398 116.208 
L 202.394659 90.288 
L 202.47392 155.088 
L 202.553182 146.448 
L 202.632443 155.088 
L 202.711705 146.448 
L 202.870227 163.728 
L 202.949489 163.728 
L 203.187273 137.808 
L 203.345795 172.368 
L 203.504318 172.368 
L 203.742102 178.848 
L 203.821364 176.688 
L 204.059148 161.568 
L 204.138409 161.568 
L 204.296932 148.608 
L 204.455455 168.048 
L 204.534716 168.048 
L 204.613977 161.568 
L 204.7725 168.048 
L 205.168807 168.048 
L 205.32733 142.128 
L 205.485852 178.848 
L 205.644375 163.728 
L 205.802898 163.728 
L 205.96142 159.408 
L 206.199205 172.368 
L 206.357727 142.128 
L 206.51625 178.848 
L 206.674773 155.088 
L 206.833295 176.688 
L 206.991818 103.248 
L 207.229602 176.688 
L 207.388125 176.688 
L 207.546648 172.368 
L 207.625909 172.368 
L 207.70517 168.048 
L 207.942955 142.128 
L 208.101477 146.448 
L 208.26 116.208 
L 208.497784 163.728 
L 208.656307 172.368 
L 208.81483 172.368 
L 208.894091 155.088 
L 208.973352 174.528 
L 209.052614 146.448 
L 209.211136 159.408 
L 209.290398 163.728 
L 209.369659 176.688 
L 209.528182 159.408 
L 209.686705 159.408 
L 209.765966 178.848 
L 209.924489 150.768 
L 210.083011 150.768 
L 210.162273 168.048 
L 210.320795 159.408 
L 210.400057 159.408 
L 210.717102 107.568 
L 210.875625 176.688 
L 211.034148 176.688 
L 211.113409 172.368 
L 211.19267 161.568 
L 211.271932 172.368 
L 211.509716 157.248 
L 211.588977 157.248 
L 211.826761 168.048 
L 211.985284 150.768 
L 212.064545 150.768 
L 212.143807 146.448 
L 212.223068 163.728 
L 212.381591 155.088 
L 212.460852 155.088 
L 212.619375 172.368 
L 212.777898 172.368 
L 212.857159 129.168 
L 213.015682 178.848 
L 213.094943 178.848 
L 213.174205 170.208 
L 213.332727 120.528 
L 213.49125 161.568 
L 213.570511 161.568 
L 213.729034 168.048 
L 213.808295 168.048 
L 213.887557 142.128 
L 214.125341 178.848 
L 214.204602 178.848 
L 214.521648 150.768 
L 214.68017 174.528 
L 214.759432 176.688 
L 214.917955 163.728 
L 215.155739 155.088 
L 215.314261 155.088 
L 215.393523 124.848 
L 215.472784 163.728 
L 215.710568 124.848 
L 215.78983 62.208 
L 215.869091 107.568 
L 215.948352 53.568 
L 216.186136 178.848 
L 216.344659 178.848 
L 216.42392 163.728 
L 216.661705 211.248 
L 216.820227 129.168 
L 216.97875 150.768 
L 217.058011 152.928 
L 217.137273 137.808 
L 217.216534 172.368 
L 217.375057 142.128 
L 217.454318 142.128 
L 217.612841 168.048 
L 217.692102 181.008 
L 217.771364 159.408 
L 217.850625 165.888 
L 217.929886 165.888 
L 218.088409 176.688 
L 218.16767 174.528 
L 218.246932 176.688 
L 218.326193 168.048 
L 218.405455 178.848 
L 218.484716 168.048 
L 218.563977 178.848 
L 218.881023 148.608 
L 219.039545 150.768 
L 219.118807 150.768 
L 219.27733 142.128 
L 219.594375 176.688 
L 219.673636 146.448 
L 219.752898 155.088 
L 219.832159 144.288 
L 219.990682 116.208 
L 220.149205 159.408 
L 220.307727 159.408 
L 220.46625 146.448 
L 220.545511 146.448 
L 220.624773 176.688 
L 220.783295 159.408 
L 220.862557 159.408 
L 221.02108 168.048 
L 221.179602 168.048 
L 221.417386 172.368 
L 221.575909 146.448 
L 221.65517 142.128 
L 221.813693 150.768 
L 221.892955 150.768 
L 222.130739 176.688 
L 222.21 176.688 
L 222.447784 92.448 
L 222.527045 116.208 
L 222.606307 174.528 
L 222.685568 116.208 
L 222.76483 174.528 
L 222.844091 172.368 
L 223.002614 172.368 
L 223.240398 185.328 
L 223.478182 155.088 
L 223.636705 183.168 
L 223.874489 129.168 
L 224.112273 172.368 
L 224.270795 146.448 
L 224.429318 146.448 
L 224.746364 163.728 
L 224.904886 159.408 
L 224.984148 161.568 
L 225.063409 168.048 
L 225.14267 161.568 
L 225.221932 176.688 
L 225.301193 150.768 
L 225.380455 172.368 
L 225.538977 155.088 
L 225.618239 155.088 
L 225.6975 146.448 
L 225.935284 204.768 
L 226.093807 168.048 
L 226.25233 172.368 
L 226.331591 168.048 
L 226.410852 142.128 
L 226.490114 146.448 
L 226.569375 146.448 
L 226.727898 172.368 
L 226.88642 159.408 
L 227.124205 159.408 
L 227.282727 176.688 
L 227.44125 176.688 
L 227.599773 142.128 
L 227.916818 172.368 
L 228.313125 172.368 
L 228.550909 150.768 
L 228.63017 150.768 
L 228.709432 133.488 
L 228.867955 155.088 
L 228.947216 155.088 
L 229.105739 133.488 
L 229.264261 152.928 
L 229.343523 152.928 
L 229.422784 155.088 
L 229.660568 176.688 
L 229.819091 155.088 
L 229.977614 133.488 
L 230.136136 172.368 
L 230.294659 150.768 
L 230.453182 161.568 
L 230.611705 165.888 
L 230.690966 165.888 
L 230.770227 172.368 
L 230.92875 168.048 
L 231.087273 133.488 
L 231.245795 176.688 
L 231.562841 146.448 
L 231.721364 172.368 
L 231.800625 172.368 
L 231.959148 146.448 
L 232.038409 150.768 
L 232.11767 150.768 
L 232.276193 176.688 
L 232.355455 176.688 
L 232.513977 181.008 
L 232.6725 168.048 
L 232.831023 165.888 
L 232.989545 174.528 
L 233.148068 152.928 
L 233.306591 159.408 
L 233.385852 159.408 
L 233.465114 176.688 
L 233.544375 172.368 
L 233.702898 172.368 
L 233.86142 163.728 
L 233.940682 163.728 
L 234.178466 213.408 
L 234.336989 217.728 
L 234.495511 170.208 
L 234.812557 163.728 
L 234.891818 163.728 
L 234.97108 159.408 
L 235.129602 129.168 
L 235.288125 137.808 
L 235.367386 174.528 
L 235.446648 133.488 
L 235.525909 148.608 
L 235.60517 148.608 
L 235.922216 176.688 
L 236.16 155.088 
L 236.239261 155.088 
L 236.397784 161.568 
L 236.477045 161.568 
L 236.635568 174.528 
L 236.71483 174.528 
L 236.794091 142.128 
L 237.031875 189.648 
L 237.111136 189.648 
L 237.269659 168.048 
L 237.34892 168.048 
L 237.428182 176.688 
L 237.586705 170.208 
L 237.665966 170.208 
L 237.90375 159.408 
L 237.983011 159.408 
L 238.141534 181.008 
L 238.45858 155.088 
L 238.537841 163.728 
L 238.617102 150.768 
L 238.696364 157.248 
L 238.775625 146.448 
L 238.854886 157.248 
L 238.934148 146.448 
L 239.09267 159.408 
L 239.171932 159.408 
L 239.251193 168.048 
L 239.330455 155.088 
L 239.488977 168.048 
L 239.568239 168.048 
L 239.726761 176.688 
L 240.043807 163.728 
L 240.20233 142.128 
L 240.360852 168.048 
L 240.519375 168.048 
L 240.677898 174.528 
L 240.757159 174.528 
L 240.83642 168.048 
L 240.994943 146.448 
L 241.153466 165.888 
L 241.232727 165.888 
L 241.39125 176.688 
L 241.470511 178.848 
L 241.549773 142.128 
L 241.629034 168.048 
L 241.866818 133.488 
L 241.94608 133.488 
L 242.104602 172.368 
L 242.263125 165.888 
L 242.342386 146.448 
L 242.421648 155.088 
L 242.500909 146.448 
L 242.58017 155.088 
L 242.659432 146.448 
L 242.817955 185.328 
L 242.897216 185.328 
L 243.135 133.488 
L 243.293523 176.688 
L 243.372784 150.768 
L 243.452045 187.488 
L 243.531307 137.808 
L 243.610568 176.688 
L 243.68983 172.368 
L 243.848352 172.368 
L 243.927614 168.048 
L 244.006875 176.688 
L 244.165398 159.408 
L 244.32392 98.928 
L 244.482443 176.688 
L 244.561705 176.688 
L 244.720227 146.448 
L 244.799489 146.448 
L 245.116534 181.008 
L 245.275057 159.408 
L 245.354318 157.248 
L 245.512841 142.128 
L 245.592102 142.128 
L 245.671364 159.408 
L 245.909148 137.808 
L 245.988409 137.808 
L 246.146932 163.728 
L 246.305455 161.568 
L 246.543239 133.488 
L 246.781023 172.368 
L 246.939545 155.088 
L 247.018807 155.088 
L 247.17733 146.448 
L 247.335852 142.128 
L 247.415114 142.128 
L 247.494375 137.808 
L 247.573636 163.728 
L 247.732159 150.768 
L 247.81142 150.768 
L 247.969943 176.688 
L 248.049205 168.048 
L 248.128466 176.688 
L 248.286989 155.088 
L 248.445511 155.088 
L 248.604034 137.808 
L 248.762557 137.808 
L 248.92108 155.088 
L 249.079602 142.128 
L 249.238125 146.448 
L 249.317386 146.448 
L 249.396648 159.408 
L 249.55517 142.128 
L 249.634432 142.128 
L 249.792955 163.728 
L 249.951477 161.568 
L 250.11 163.728 
L 250.268523 146.448 
L 250.427045 181.008 
L 250.66483 161.568 
L 250.744091 161.568 
L 250.823352 163.728 
L 250.981875 172.368 
L 251.140398 146.448 
L 251.219659 146.448 
L 251.536705 174.528 
L 251.615966 142.128 
L 251.695227 146.448 
L 251.774489 137.808 
L 251.85375 146.448 
L 252.012273 200.448 
L 252.091534 200.448 
L 252.40858 137.808 
L 252.567102 142.128 
L 252.725625 178.848 
L 252.804886 178.848 
L 253.04267 174.528 
L 253.121932 174.528 
L 253.280455 168.048 
L 253.359716 170.208 
L 253.5975 150.768 
L 253.835284 181.008 
L 253.914545 181.008 
L 254.231591 161.568 
L 254.310852 176.688 
L 254.390114 155.088 
L 254.469375 176.688 
L 254.707159 142.128 
L 254.78642 144.288 
L 254.865682 150.768 
L 254.944943 176.688 
L 255.103466 146.448 
L 255.182727 146.448 
L 255.261989 150.768 
L 255.420511 168.048 
L 255.658295 185.328 
L 255.737557 181.008 
L 255.975341 181.008 
L 256.054602 189.648 
L 256.213125 181.008 
L 256.292386 181.008 
L 256.450909 176.688 
L 256.53017 176.688 
L 256.688693 159.408 
L 256.847216 161.568 
L 257.005739 161.568 
L 257.085 155.088 
L 257.243523 159.408 
L 257.322784 159.408 
L 257.402045 165.888 
L 257.560568 152.928 
L 257.63983 152.928 
L 257.798352 168.048 
L 257.877614 165.888 
L 258.036136 159.408 
L 258.115398 159.408 
L 258.27392 133.488 
L 258.353182 124.848 
L 258.511705 155.088 
L 258.670227 155.088 
L 258.82875 168.048 
L 258.908011 155.088 
L 258.987273 111.888 
L 259.145795 133.488 
L 259.225057 133.488 
L 259.38358 129.168 
L 259.462841 129.168 
L 259.621364 161.568 
L 259.700625 172.368 
L 259.859148 159.408 
L 260.01767 159.408 
L 260.096932 155.088 
L 260.176193 170.208 
L 260.493239 124.848 
L 260.5725 124.848 
L 260.731023 142.128 
L 260.810284 142.128 
L 261.285852 168.048 
L 261.444375 150.768 
L 261.682159 209.088 
L 261.919943 155.088 
L 262.078466 155.088 
L 262.157727 159.408 
L 262.31625 172.368 
L 262.395511 172.368 
L 262.474773 133.488 
L 262.554034 137.808 
L 262.712557 137.808 
L 262.87108 142.128 
L 263.029602 172.368 
L 263.188125 150.768 
L 263.425909 178.848 
L 263.50517 155.088 
L 263.584432 178.848 
L 263.663693 176.688 
L 263.980739 176.688 
L 264.218523 120.528 
L 264.456307 150.768 
L 264.61483 168.048 
L 264.773352 198.288 
L 265.011136 129.168 
L 265.169659 165.888 
L 265.486705 165.888 
L 265.645227 168.048 
L 265.724489 181.008 
L 265.80375 168.048 
L 265.883011 172.368 
L 265.962273 168.048 
L 266.120795 170.208 
L 266.200057 170.208 
L 266.437841 144.288 
L 266.517102 176.688 
L 266.596364 172.368 
L 266.754886 172.368 
L 266.834148 159.408 
L 266.913409 181.008 
L 267.151193 133.488 
L 267.388977 165.888 
L 267.5475 165.888 
L 267.626761 176.688 
L 267.706023 170.208 
L 267.785284 174.528 
L 267.864545 170.208 
L 268.10233 178.848 
L 268.340114 172.368 
L 268.498636 148.608 
L 268.657159 174.528 
L 268.815682 150.768 
L 268.974205 174.528 
L 269.053466 163.728 
L 269.132727 174.528 
L 269.29125 168.048 
L 269.529034 168.048 
L 269.608295 187.488 
L 269.766818 176.688 
L 269.84608 176.688 
L 270.004602 215.568 
L 270.083864 215.568 
L 270.163125 211.248 
L 270.242386 217.728 
L 270.400909 206.928 
L 270.638693 159.408 
L 270.876477 181.008 
L 271.035 155.088 
L 271.193523 172.368 
L 271.272784 172.368 
L 271.431307 159.408 
L 271.510568 159.408 
L 271.669091 185.328 
L 271.827614 159.408 
L 271.906875 165.888 
L 271.986136 137.808 
L 272.065398 142.128 
L 272.144659 142.128 
L 272.303182 176.688 
L 272.382443 176.688 
L 272.540966 183.168 
L 272.620227 174.528 
L 272.77875 116.208 
L 272.858011 116.208 
L 273.016534 161.568 
L 273.175057 146.448 
L 273.254318 146.448 
L 273.412841 181.008 
L 273.492102 181.008 
L 273.650625 168.048 
L 273.729886 163.728 
L 273.888409 146.448 
L 273.96767 146.448 
L 274.046932 150.768 
L 274.126193 142.128 
L 274.363977 172.368 
L 274.5225 137.808 
L 274.760284 157.248 
L 274.839545 157.248 
L 274.918807 159.408 
L 274.998068 150.768 
L 275.07733 163.728 
L 275.156591 159.408 
L 275.394375 172.368 
L 275.552898 172.368 
L 275.632159 155.088 
L 275.790682 172.368 
L 275.869943 172.368 
L 276.107727 129.168 
L 276.186989 129.168 
L 276.345511 163.728 
L 276.424773 168.048 
L 276.662557 159.408 
L 276.82108 163.728 
L 277.138125 133.488 
L 277.217386 133.488 
L 277.375909 142.128 
L 277.45517 142.128 
L 277.692955 176.688 
L 277.772216 176.688 
L 277.930739 163.728 
L 278.089261 174.528 
L 278.247784 159.408 
L 278.406307 174.528 
L 278.644091 163.728 
L 278.723352 174.528 
L 278.802614 172.368 
L 278.881875 176.688 
L 279.040398 168.048 
L 279.19892 155.088 
L 279.278182 155.088 
L 279.436705 159.408 
L 279.595227 155.088 
L 279.75375 176.688 
L 279.912273 159.408 
L 280.070795 152.928 
L 280.30858 159.408 
L 280.467102 148.608 
L 280.546364 148.608 
L 280.704886 176.688 
L 280.863409 172.368 
L 281.021932 157.248 
L 281.180455 161.568 
L 281.338977 155.088 
L 281.4975 155.088 
L 281.576761 159.408 
L 281.735284 174.528 
L 281.893807 103.248 
L 282.05233 103.248 
L 282.210852 155.088 
L 282.290114 155.088 
L 282.448636 193.968 
L 282.527898 193.968 
L 282.607159 124.848 
L 282.68642 133.488 
L 282.924205 111.888 
L 283.082727 129.168 
L 283.161989 129.168 
L 283.320511 168.048 
L 283.399773 168.048 
L 283.558295 178.848 
L 283.716818 111.888 
L 283.954602 211.248 
L 284.192386 137.808 
L 284.271648 124.848 
L 284.588693 159.408 
L 284.747216 168.048 
L 284.826477 168.048 
L 285.064261 111.888 
L 285.302045 152.928 
L 285.460568 152.928 
L 285.53983 155.088 
L 285.619091 142.128 
L 285.698352 159.408 
L 285.777614 142.128 
L 285.856875 150.768 
L 285.936136 111.888 
L 286.094659 150.768 
L 286.17392 150.768 
L 286.332443 168.048 
L 286.490966 172.368 
L 286.649489 159.408 
L 286.808011 204.768 
L 286.966534 137.808 
L 287.125057 204.768 
L 287.204318 204.768 
L 287.28358 213.408 
L 287.362841 193.968 
L 287.442102 206.928 
L 287.521364 193.968 
L 287.679886 211.248 
L 287.759148 211.248 
L 287.838409 209.088 
L 287.996932 196.128 
L 288.155455 146.448 
L 288.313977 185.328 
L 288.393239 185.328 
L 288.551761 215.568 
L 288.631023 213.408 
L 288.710284 213.408 
L 288.868807 176.688 
L 289.02733 198.288 
L 289.106591 198.288 
L 289.265114 213.408 
L 289.344375 213.408 
L 289.502898 185.328 
L 289.582159 185.328 
L 289.899205 172.368 
L 290.136989 206.928 
L 290.295511 189.648 
L 290.374773 189.648 
L 290.533295 211.248 
L 290.691818 116.208 
L 290.850341 172.368 
L 291.008864 191.808 
L 291.167386 191.808 
L 291.246648 172.368 
L 291.325909 174.528 
L 291.40517 174.528 
L 291.563693 181.008 
L 291.722216 176.688 
L 291.96 176.688 
L 292.039261 181.008 
L 292.118523 172.368 
L 292.277045 142.128 
L 292.435568 150.768 
L 292.51483 150.768 
L 292.673352 172.368 
L 292.752614 172.368 
L 292.911136 155.088 
L 293.069659 155.088 
L 293.228182 172.368 
L 293.386705 172.368 
L 293.465966 142.128 
L 293.624489 168.048 
L 293.70375 168.048 
L 293.941534 146.448 
L 294.020795 146.448 
L 294.179318 170.208 
L 294.337841 124.848 
L 294.417102 129.168 
L 294.575625 170.208 
L 294.654886 152.928 
L 294.734148 172.368 
L 294.89267 88.128 
L 294.971932 88.128 
L 295.130455 176.688 
L 295.288977 155.088 
L 295.368239 155.088 
L 295.606023 142.128 
L 295.764545 172.368 
L 295.843807 172.368 
L 296.00233 155.088 
L 296.081591 155.088 
L 296.319375 183.168 
L 296.477898 168.048 
L 296.63642 168.048 
L 296.715682 116.208 
L 296.874205 176.688 
L 296.953466 176.688 
L 297.19125 155.088 
L 297.270511 155.088 
L 297.508295 181.008 
L 297.587557 181.008 
L 297.74608 142.128 
L 297.904602 142.128 
L 298.063125 165.888 
L 298.221648 176.688 
L 298.300909 176.688 
L 298.459432 159.408 
L 298.617955 176.688 
L 298.776477 165.888 
L 298.855739 165.888 
L 299.014261 172.368 
L 299.172784 142.128 
L 299.252045 155.088 
L 299.331307 137.808 
L 299.48983 165.888 
L 299.569091 165.888 
L 299.648352 189.648 
L 299.727614 142.128 
L 299.886136 168.048 
L 299.965398 168.048 
L 300.12392 139.968 
L 300.282443 185.328 
L 300.361705 185.328 
L 300.440966 181.008 
L 300.599489 148.608 
L 300.837273 163.728 
L 300.916534 163.728 
L 301.075057 168.048 
L 301.23358 161.568 
L 301.312841 159.408 
L 301.392102 172.368 
L 301.550625 159.408 
L 301.629886 159.408 
L 301.86767 209.088 
L 301.946932 209.088 
L 302.105455 174.528 
L 302.263977 163.728 
L 302.4225 142.128 
L 302.581023 185.328 
L 302.660284 185.328 
L 302.898068 168.048 
L 303.056591 163.728 
L 303.135852 163.728 
L 303.215114 172.368 
L 303.373636 215.568 
L 303.532159 209.088 
L 303.690682 172.368 
L 303.849205 165.888 
L 304.007727 178.848 
L 304.245511 133.488 
L 304.324773 133.488 
L 304.483295 189.648 
L 304.562557 189.648 
L 304.641818 191.808 
L 304.879602 146.448 
L 304.958864 163.728 
L 305.038125 155.088 
L 305.275909 172.368 
L 305.434432 172.368 
L 305.513693 159.408 
L 305.672216 168.048 
L 305.751477 168.048 
L 305.91 178.848 
L 306.068523 178.848 
L 306.306307 152.928 
L 306.385568 152.928 
L 306.544091 159.408 
L 306.623352 159.408 
L 306.702614 161.568 
L 306.861136 172.368 
L 307.019659 172.368 
L 307.178182 155.088 
L 307.257443 155.088 
L 307.415966 146.448 
L 307.574489 159.408 
L 307.733011 172.368 
L 307.891534 107.568 
L 307.970795 107.568 
L 308.129318 174.528 
L 308.20858 181.008 
L 308.287841 168.048 
L 308.367102 172.368 
L 308.446364 168.048 
L 308.525625 172.368 
L 308.684148 163.728 
L 308.84267 163.728 
L 308.921932 168.048 
L 309.001193 163.728 
L 309.080455 168.048 
L 309.238977 155.088 
L 309.318239 155.088 
L 309.3975 150.768 
L 309.556023 159.408 
L 309.635284 159.408 
L 309.793807 150.768 
L 309.95233 172.368 
L 310.110852 152.928 
L 310.190114 150.768 
L 310.348636 124.848 
L 310.665682 168.048 
L 310.744943 150.768 
L 310.982727 178.848 
L 311.061989 170.208 
L 311.14125 172.368 
L 311.379034 172.368 
L 311.616818 129.168 
L 311.69608 129.168 
L 311.854602 120.528 
L 312.171648 146.448 
L 312.250909 146.448 
L 312.33017 163.728 
L 312.488693 213.408 
L 312.647216 170.208 
L 312.726477 150.768 
L 312.885 174.528 
L 312.964261 174.528 
L 313.122784 146.448 
L 313.360568 189.648 
L 313.43983 189.648 
L 313.598352 168.048 
L 313.756875 176.688 
L 313.836136 176.688 
L 313.994659 168.048 
L 314.07392 170.208 
L 314.232443 209.088 
L 314.311705 209.088 
L 314.470227 219.888 
L 314.62875 219.888 
L 314.708011 157.248 
L 314.866534 187.488 
L 315.104318 217.728 
L 315.18358 217.728 
L 315.262841 215.568 
L 315.421364 209.088 
L 315.579886 209.088 
L 315.659148 219.888 
L 315.738409 213.408 
L 315.81767 217.728 
L 315.896932 213.408 
L 315.976193 215.568 
L 316.055455 193.968 
L 316.213977 217.728 
L 316.3725 217.728 
L 316.531023 209.088 
L 316.610284 211.248 
L 316.768807 217.728 
L 316.92733 219.888 
L 317.165114 209.088 
L 317.323636 209.088 
L 317.402898 217.728 
L 317.482159 215.568 
L 317.719943 219.888 
L 317.878466 187.488 
L 318.036989 204.768 
L 318.11625 204.768 
L 318.274773 217.728 
L 318.433295 219.888 
L 318.591818 217.728 
L 318.829602 198.288 
L 318.988125 215.568 
L 319.146648 209.088 
L 319.30517 215.568 
L 319.384432 215.568 
L 319.542955 211.248 
L 319.622216 211.248 
L 319.780739 219.888 
L 319.86 219.888 
L 320.018523 215.568 
L 320.097784 215.568 
L 320.177045 217.728 
L 320.335568 209.088 
L 320.652614 209.088 
L 320.811136 219.888 
L 320.969659 217.728 
L 321.04892 217.728 
L 321.128182 209.088 
L 321.207443 219.888 
L 321.365966 213.408 
L 321.445227 213.408 
L 321.683011 204.768 
L 321.841534 209.088 
L 322.079318 209.088 
L 322.317102 219.888 
L 322.475625 219.888 
L 322.634148 211.248 
L 322.871932 211.248 
L 322.951193 206.928 
L 323.109716 129.168 
L 323.268239 178.848 
L 323.3475 163.728 
L 323.506023 120.528 
L 323.664545 217.728 
L 323.743807 217.728 
L 323.90233 209.088 
L 324.140114 209.088 
L 324.219375 198.288 
L 324.377898 219.888 
L 324.457159 219.888 
L 324.694943 150.768 
L 324.774205 150.768 
L 324.853466 116.208 
L 324.932727 142.128 
L 325.011989 85.968 
L 325.170511 170.208 
L 325.249773 170.208 
L 325.329034 168.048 
L 325.566818 111.888 
L 325.883864 209.088 
L 326.042386 209.088 
L 326.121648 163.728 
L 326.28017 209.088 
L 326.517955 209.088 
L 326.755739 168.048 
L 326.835 172.368 
L 326.993523 209.088 
L 327.072784 209.088 
L 327.231307 172.368 
L 327.310568 150.768 
L 327.469091 217.728 
L 327.627614 217.728 
L 327.706875 211.248 
L 327.786136 219.888 
L 327.865398 209.088 
L 327.944659 211.248 
L 328.103182 209.088 
L 328.261705 209.088 
L 328.420227 217.728 
L 328.499489 217.728 
L 328.737273 193.968 
L 328.895795 217.728 
L 328.975057 217.728 
L 329.13358 211.248 
L 329.212841 209.088 
L 329.292102 211.248 
L 329.371364 209.088 
L 329.450625 217.728 
L 329.529886 211.248 
L 329.609148 213.408 
L 329.846932 209.088 
L 330.005455 215.568 
L 330.163977 209.088 
L 330.243239 209.088 
L 330.401761 217.728 
L 330.560284 217.728 
L 330.639545 209.088 
L 330.718807 217.728 
L 330.87733 209.088 
L 330.956591 209.088 
L 331.115114 219.888 
L 331.273636 215.568 
L 331.352898 217.728 
L 331.51142 215.568 
L 331.590682 215.568 
L 331.749205 217.728 
L 331.907727 217.728 
L 332.06625 211.248 
L 332.224773 215.568 
L 332.304034 217.728 
L 332.62108 189.648 
L 332.700341 193.968 
L 332.858864 209.088 
L 333.017386 217.728 
L 333.096648 217.728 
L 333.175909 209.088 
L 333.413693 219.888 
L 333.572216 219.888 
L 333.651477 217.728 
L 333.81 219.888 
L 333.889261 219.888 
L 334.047784 209.088 
L 334.127045 211.248 
L 334.206307 217.728 
L 334.285568 211.248 
L 334.36483 217.728 
L 334.444091 209.088 
L 334.523352 219.888 
L 334.602614 209.088 
L 334.681875 219.888 
L 334.761136 217.728 
L 334.919659 217.728 
L 335.078182 219.888 
L 335.236705 209.088 
L 335.315966 209.088 
L 335.474489 198.288 
L 335.633011 219.888 
L 335.791534 219.888 
L 335.950057 213.408 
L 336.10858 213.408 
L 336.187841 209.088 
L 336.267102 211.248 
L 336.346364 209.088 
L 336.584148 215.568 
L 336.74267 198.288 
L 336.901193 217.728 
L 336.980455 217.728 
L 337.138977 209.088 
L 337.376761 209.088 
L 337.456023 217.728 
L 337.614545 209.088 
L 337.693807 209.088 
L 337.85233 217.728 
L 338.248636 217.728 
L 338.407159 219.888 
L 338.565682 219.888 
L 338.644943 209.088 
L 338.724205 215.568 
L 338.803466 209.088 
L 338.961989 217.728 
L 339.04125 217.728 
L 339.199773 202.608 
L 339.437557 215.568 
L 339.59608 217.728 
L 339.754602 217.728 
L 339.833864 213.408 
L 339.913125 219.888 
L 339.992386 215.568 
L 340.071648 219.888 
L 340.23017 215.568 
L 340.467955 215.568 
L 340.626477 217.728 
L 340.705739 217.728 
L 340.864261 211.248 
L 340.943523 211.248 
L 341.022784 215.568 
L 341.181307 211.248 
L 341.33983 209.088 
L 341.498352 198.288 
L 341.577614 198.288 
L 341.736136 209.088 
L 341.815398 209.088 
L 341.894659 193.968 
L 341.97392 215.568 
L 342.053182 211.248 
L 342.132443 215.568 
L 342.211705 211.248 
L 342.449489 219.888 
L 342.608011 213.408 
L 342.687273 209.088 
L 342.845795 215.568 
L 342.925057 215.568 
L 343.08358 209.088 
L 343.162841 209.088 
L 343.400625 219.888 
L 343.479886 219.888 
L 343.638409 209.088 
L 343.71767 209.088 
L 343.876193 213.408 
L 344.034716 209.088 
L 344.113977 209.088 
L 344.2725 217.728 
L 344.431023 215.568 
L 344.510284 215.568 
L 344.668807 209.088 
L 344.82733 217.728 
L 344.985852 209.088 
L 345.144375 209.088 
L 345.302898 213.408 
L 345.382159 213.408 
L 345.46142 209.088 
L 345.540682 211.248 
L 345.619943 209.088 
L 345.699205 211.248 
L 345.857727 209.088 
L 345.936989 209.088 
L 346.01625 198.288 
L 346.174773 209.088 
L 346.412557 215.568 
L 346.57108 209.088 
L 346.808864 217.728 
L 346.967386 209.088 
L 347.20517 209.088 
L 347.363693 215.568 
L 347.442955 211.248 
L 347.601477 187.488 
L 347.76 209.088 
L 347.918523 219.888 
L 348.077045 217.728 
L 348.235568 209.088 
L 348.552614 209.088 
L 348.711136 217.728 
L 348.790398 217.728 
L 348.94892 219.888 
L 349.028182 219.888 
L 349.186705 217.728 
L 349.265966 217.728 
L 349.50375 224.208 
L 349.583011 219.888 
L 349.662273 226.368 
L 349.820795 219.888 
L 350.05858 219.888 
L 350.217102 213.408 
L 350.296364 213.408 
L 350.454886 215.568 
L 350.534148 215.568 
L 350.613409 200.448 
L 350.69267 226.368 
L 350.771932 200.448 
L 350.930455 215.568 
L 351.168239 215.568 
L 351.2475 239.328 
L 351.326761 235.008 
L 351.485284 241.488 
L 351.564545 241.488 
L 351.723068 245.808 
L 351.881591 243.648 
L 352.040114 252.288 
L 352.119375 252.288 
L 352.357159 256.608 
L 352.515682 252.288 
L 352.674205 252.288 
L 352.753466 247.968 
L 352.911989 217.728 
L 352.99125 217.728 
L 353.149773 228.528 
L 353.308295 202.608 
L 353.387557 202.608 
L 353.54608 107.568 
L 353.704602 211.248 
L 353.942386 211.248 
L 354.021648 209.088 
L 354.100909 215.568 
L 354.259432 211.248 
L 354.338693 211.248 
L 354.497216 217.728 
L 354.576477 219.888 
L 354.655739 211.248 
L 354.735 213.408 
L 354.893523 213.408 
L 355.210568 235.008 
L 355.369091 219.888 
L 355.448352 219.888 
L 355.527614 217.728 
L 355.606875 219.888 
L 355.844659 230.688 
L 355.92392 232.848 
L 356.161705 250.128 
L 356.320227 245.808 
L 356.399489 243.648 
L 356.558011 232.848 
L 356.716534 235.008 
L 357.03358 235.008 
L 357.192102 239.328 
L 357.350625 239.328 
L 357.509148 241.488 
L 357.588409 241.488 
L 357.826193 237.168 
L 357.984716 241.488 
L 358.143239 254.448 
L 358.301761 239.328 
L 358.460284 252.288 
L 358.539545 252.288 
L 358.618807 247.968 
L 358.77733 217.728 
L 358.935852 217.728 
L 359.094375 215.568 
L 359.173636 215.568 
L 359.252898 219.888 
L 359.41142 215.568 
L 359.569943 215.568 
L 359.649205 217.728 
L 359.728466 224.208 
L 359.886989 265.248 
L 360.045511 260.928 
L 360.283295 260.928 
L 360.838125 235.008 
L 360.996648 241.488 
L 361.15517 239.328 
L 361.472216 239.328 
L 361.71 256.608 
L 361.868523 250.128 
L 361.947784 235.008 
L 362.106307 252.288 
L 362.423352 252.288 
L 362.661136 209.088 
L 362.819659 209.088 
L 362.978182 239.328 
L 363.057443 239.328 
L 363.215966 247.968 
L 363.295227 243.648 
L 363.45375 222.048 
L 363.533011 217.728 
L 363.770795 247.968 
L 363.929318 247.968 
L 364.00858 252.288 
L 364.087841 245.808 
L 364.167102 247.968 
L 364.484148 241.488 
L 364.64267 241.488 
L 364.801193 217.728 
L 364.959716 209.088 
L 365.038977 211.248 
L 365.276761 230.688 
L 365.435284 230.688 
L 365.593807 250.128 
L 365.75233 239.328 
L 365.910852 247.968 
L 366.069375 241.488 
L 366.227898 258.768 
L 366.307159 258.768 
L 366.465682 263.088 
L 366.782727 269.568 
L 366.94125 286.848 
L 367.099773 263.088 
L 367.258295 265.248 
L 367.416818 265.248 
L 367.575341 271.728 
L 367.654602 273.888 
L 367.813125 269.568 
L 367.892386 269.568 
L 368.288693 286.848 
L 368.526477 286.848 
L 368.605739 282.528 
L 368.764261 286.848 
L 368.922784 286.848 
L 369.002045 282.528 
L 369.081307 286.848 
L 369.160568 282.528 
L 369.319091 286.848 
L 369.715398 286.848 
L 369.87392 282.528 
L 369.953182 282.528 
L 370.111705 269.568 
L 370.349489 269.568 
L 370.42875 271.728 
L 370.508011 267.408 
L 370.666534 273.888 
L 370.745795 273.888 
L 370.98358 282.528 
L 371.062841 282.528 
L 371.300625 286.848 
L 371.538409 286.848 
L 371.696932 295.488 
L 372.013977 282.528 
L 372.410284 282.528 
L 372.568807 271.728 
L 372.72733 269.568 
L 372.806591 247.968 
L 372.965114 260.928 
L 373.044375 260.928 
L 373.202898 159.408 
L 373.36142 187.488 
L 373.440682 193.968 
L 373.599205 185.328 
L 373.678466 185.328 
L 374.391818 219.888 
L 374.550341 215.568 
L 374.788125 211.248 
L 374.946648 217.728 
L 375.025909 217.728 
L 375.10517 215.568 
L 375.263693 187.488 
L 375.422216 200.448 
L 375.501477 200.448 
L 375.66 196.128 
L 375.818523 198.288 
L 375.897784 198.288 
L 376.056307 185.328 
L 376.21483 202.608 
L 376.373352 189.648 
L 376.690398 243.648 
L 376.769659 243.648 
L 376.928182 235.008 
L 377.245227 235.008 
L 377.324489 230.688 
L 377.483011 219.888 
L 377.562273 219.888 
L 377.95858 209.088 
L 378.117102 200.448 
L 378.275625 228.528 
L 378.354886 228.528 
L 378.434148 245.808 
L 378.513409 243.648 
L 378.59267 243.648 
L 378.751193 241.488 
L 378.909716 247.968 
L 378.988977 250.128 
L 379.068239 245.808 
L 379.226761 230.688 
L 379.385284 230.688 
L 379.543807 232.848 
L 379.70233 247.968 
L 379.940114 247.968 
L 380.33642 226.368 
L 380.494943 230.688 
L 380.653466 250.128 
L 380.732727 247.968 
L 380.89125 226.368 
L 381.049773 239.328 
L 381.129034 239.328 
L 381.287557 219.888 
L 381.525341 252.288 
L 381.604602 252.288 
L 381.763125 243.648 
L 381.921648 241.488 
L 382.08017 241.488 
L 382.238693 258.768 
L 382.317955 258.768 
L 382.476477 260.928 
L 382.793523 260.928 
L 382.952045 256.608 
L 383.031307 256.608 
L 383.110568 247.968 
L 383.269091 219.888 
L 383.348352 217.728 
L 383.586136 198.288 
L 383.665398 198.288 
L 383.82392 226.368 
L 383.982443 239.328 
L 384.140966 245.808 
L 384.299489 245.808 
L 384.37875 239.328 
L 384.537273 245.808 
L 384.616534 245.808 
L 384.695795 247.968 
L 384.854318 239.328 
L 384.93358 239.328 
L 385.092102 241.488 
L 385.250625 219.888 
L 385.488409 230.688 
L 385.56767 230.688 
L 385.646932 235.008 
L 385.726193 226.368 
L 385.884716 239.328 
L 386.1225 245.808 
L 386.360284 211.248 
L 386.439545 211.248 
L 386.598068 237.168 
L 386.67733 237.168 
L 386.994375 228.528 
L 387.073636 232.848 
L 387.232159 243.648 
L 387.469943 239.328 
L 387.549205 239.328 
L 387.86625 245.808 
L 388.024773 235.008 
L 388.183295 237.168 
L 388.262557 237.168 
L 388.42108 239.328 
L 388.658864 228.528 
L 388.738125 230.688 
L 389.05517 252.288 
L 389.451477 252.288 
L 389.61 228.528 
L 389.689261 230.688 
L 389.847784 228.528 
L 389.927045 228.528 
L 390.16483 239.328 
L 390.244091 239.328 
L 390.481875 243.648 
L 390.640398 206.928 
L 390.79892 230.688 
L 390.957443 232.848 
L 391.115966 252.288 
L 391.35375 252.288 
L 391.512273 239.328 
L 391.670795 239.328 
L 391.829318 232.848 
L 391.987841 232.848 
L 392.146364 226.368 
L 392.304886 232.848 
L 392.463409 230.688 
L 392.54267 230.688 
L 392.701193 217.728 
L 393.018239 243.648 
L 393.0975 243.648 
L 393.176761 241.488 
L 393.256023 243.648 
L 393.335284 241.488 
L 393.414545 247.968 
L 393.573068 241.488 
L 394.048636 230.688 
L 394.127898 230.688 
L 394.365682 235.008 
L 394.444943 235.008 
L 394.603466 243.648 
L 394.761989 235.008 
L 394.84125 235.008 
L 395.079034 243.648 
L 395.316818 235.008 
L 395.39608 252.288 
L 395.475341 247.968 
L 395.871648 247.968 
L 396.03017 222.048 
L 396.188693 198.288 
L 396.426477 219.888 
L 396.505739 219.888 
L 396.664261 217.728 
L 396.743523 217.728 
L 396.902045 215.568 
L 397.060568 217.728 
L 397.219091 217.728 
L 397.456875 252.288 
L 397.615398 254.448 
L 397.77392 252.288 
L 397.932443 252.288 
L 398.170227 241.488 
L 398.32875 226.368 
L 398.487273 226.368 
L 398.487273 226.368 
" clip-path="url(#p4150cb8d6c)" style="fill: none; stroke: #1f77b4; stroke-width: 1.5; stroke-linecap: square"/>
   </g>
   <g id="patch_3">
    <path d="M 57.6 307.584 
L 57.6 41.472 
" style="fill: none; stroke: #000000; stroke-width: 0.8; stroke-linejoin: miter; stroke-linecap: square"/>
   </g>
   <g id="patch_4">
    <path d="M 414.72 307.584 
L 414.72 41.472 
" style="fill: none; stroke: #000000; stroke-width: 0.8; stroke-linejoin: miter; stroke-linecap: square"/>
   </g>
   <g id="patch_5">
    <path d="M 57.6 307.584 
L 414.72 307.584 
" style="fill: none; stroke: #000000; stroke-width: 0.8; stroke-linejoin: miter; stroke-linecap: square"/>
   </g>
   <g id="patch_6">
    <path d="M 57.6 41.472 
L 414.72 41.472 
" style="fill: none; stroke: #000000; stroke-width: 0.8; stroke-linejoin: miter; stroke-linecap: square"/>
   </g>
   <g id="text_14">
    <!-- LEA Key Schedule -->
    <g transform="translate(182.656875 35.472) scale(0.12 -0.12)">
     <defs>
      <path id="DejaVuSans-4c" d="M 628 4666 
L 1259 4666 
L 1259 531 
L 3531 531 
L 3531 0 
L 628 0 
L 628 4666 
z
" transform="scale(0.015625)"/>
      <path id="DejaVuSans-45" d="M 628 4666 
L 3578 4666 
L 3578 4134 
L 1259 4134 
L 1259 2753 
L 3481 2753 
L 3481 2222 
L 1259 2222 
L 1259 531 
L 3634 531 
L 3634 0 
L 628 0 
L 628 4666 
z
" transform="scale(0.015625)"/>
      <path id="DejaVuSans-41" d="M 2188 4044 
L 1331 1722 
L 3047 1722 
L 2188 4044 
z
M 1831 4666 
L 2547 4666 
L 4325 0 
L 3669 0 
L 3244 1197 
L 1141 1197 
L 716 0 
L 50 0 
L 1831 4666 
z
" transform="scale(0.015625)"/>
      <path id="DejaVuSans-20" transform="scale(0.015625)"/>
      <path id="DejaVuSans-4b" d="M 628 4666 
L 1259 4666 
L 1259 2694 
L 3353 4666 
L 4166 4666 
L 1850 2491 
L 4331 0 
L 3500 0 
L 1259 2247 
L 1259 0 
L 628 0 
L 628 4666 
z
" transform="scale(0.015625)"/>
      <path id="DejaVuSans-53" d="M 3425 4513 
L 3425 3897 
Q 3066 4069 2747 4153 
Q 2428 4238 2131 4238 
Q 1616 4238 1336 4038 
Q 1056 3838 1056 3469 
Q 1056 3159 1242 3001 
Q 1428 2844 1947 2747 
L 2328 2669 
Q 3034 2534 3370 2195 
Q 3706 1856 3706 1288 
Q 3706 609 3251 259 
Q 2797 -91 1919 -91 
Q 1588 -91 1214 -16 
Q 841 59 441 206 
L 441 856 
Q 825 641 1194 531 
Q 1563 422 1919 422 
Q 2459 422 2753 634 
Q 3047 847 3047 1241 
Q 3047 1584 2836 1778 
Q 2625 1972 2144 2069 
L 1759 2144 
Q 1053 2284 737 2584 
Q 422 2884 422 3419 
Q 422 4038 858 4394 
Q 1294 4750 2059 4750 
Q 2388 4750 2728 4690 
Q 3069 4631 3425 4513 
z
" transform="scale(0.015625)"/>
      <path id="DejaVuSans-68" d="M 3513 2113 
L 3513 0 
L 2938 0 
L 2938 2094 
Q 2938 2591 2744 2837 
Q 2550 3084 2163 3084 
Q 1697 3084 1428 2787 
Q 1159 2491 1159 1978 
L 1159 0 
L 581 0 
L 581 4863 
L 1159 4863 
L 1159 2956 
Q 1366 3272 1645 3428 
Q 1925 3584 2291 3584 
Q 2894 3584 3203 3211 
Q 3513 2838 3513 2113 
z
" transform="scale(0.015625)"/>
      <path id="DejaVuSans-64" d="M 2906 2969 
L 2906 4863 
L 3481 4863 
L 3481 0 
L 2906 0 
L 2906 525 
Q 2725 213 2448 61 
Q 2172 -91 1784 -91 
Q 1150 -91 751 415 
Q 353 922 353 1747 
Q 353 2572 751 3078 
Q 1150 3584 1784 3584 
Q 2172 3584 2448 3432 
Q 2725 3281 2906 2969 
z
M 947 1747 
Q 947 1113 1208 752 
Q 1469 391 1925 391 
Q 2381 391 2643 752 
Q 2906 1113 2906 1747 
Q 2906 2381 2643 2742 
Q 2381 3103 1925 3103 
Q 1469 3103 1208 2742 
Q 947 2381 947 1747 
z
" transform="scale(0.015625)"/>
      <path id="DejaVuSans-75" d="M 544 1381 
L 544 3500 
L 1119 3500 
L 1119 1403 
Q 1119 906 1312 657 
Q 1506 409 1894 409 
Q 2359 409 2629 706 
Q 2900 1003 2900 1516 
L 2900 3500 
L 3475 3500 
L 3475 0 
L 2900 0 
L 2900 538 
Q 2691 219 2414 64 
Q 2138 -91 1772 -91 
Q 1169 -91 856 284 
Q 544 659 544 1381 
z
M 1991 3584 
L 1991 3584 
z
" transform="scale(0.015625)"/>
     </defs>
     <use xlink:href="#DejaVuSans-4c"/>
     <use xlink:href="#DejaVuSans-45" x="55.712891"/>
     <use xlink:href="#DejaVuSans-41" x="118.896484"/>
     <use xlink:href="#DejaVuSans-20" x="187.304688"/>
     <use xlink:href="#DejaVuSans-4b" x="219.091797"/>
     <use xlink:href="#DejaVuSans-65" x="279.667969"/>
     <use xlink:href="#DejaVuSans-79" x="341.191406"/>
     <use xlink:href="#DejaVuSans-20" x="400.371094"/>
     <use xlink:href="#DejaVuSans-53" x="432.158203"/>
     <use xlink:href="#DejaVuSans-63" x="495.634766"/>
     <use xlink:href="#DejaVuSans-68" x="550.615234"/>
     <use xlink:href="#DejaVuSans-65" x="613.994141"/>
     <use xlink:href="#DejaVuSans-64" x="675.517578"/>
     <use xlink:href="#DejaVuSans-75" x="738.994141"/>
     <use xlink:href="#DejaVuSans-6c" x="802.373047"/>
     <use xlink:href="#DejaVuSans-65" x="830.15625"/>
    </g>
   </g>
   <g id="legend_1">
    <g id="patch_7">
     <path d="M 64.6 302.584 
L 365.789062 302.584 
Q 367.789062 302.584 367.789062 300.584 
L 367.789062 286.905875 
Q 367.789062 284.905875 365.789062 284.905875 
L 64.6 284.905875 
Q 62.6 284.905875 62.6 286.905875 
L 62.6 300.584 
Q 62.6 302.584 64.6 302.584 
z
" style="fill: #ffffff; opacity: 0.8; stroke: #cccccc; stroke-linejoin: miter"/>
    </g>
    <g id="line2d_13">
     <path d="M 66.6 293.004312 
L 76.6 293.004312 
L 86.6 293.004312 
" style="fill: none; stroke: #1f77b4; stroke-width: 1.5; stroke-linecap: square"/>
    </g>
    <g id="text_15">
     <!-- Median filtered key schedule algorithm cycles per run -->
     <g transform="translate(94.6 296.504312) scale(0.1 -0.1)">
      <defs>
       <path id="DejaVuSans-4d" d="M 628 4666 
L 1569 4666 
L 2759 1491 
L 3956 4666 
L 4897 4666 
L 4897 0 
L 4281 0 
L 4281 4097 
L 3078 897 
L 2444 897 
L 1241 4097 
L 1241 0 
L 628 0 
L 628 4666 
z
" transform="scale(0.015625)"/>
       <path id="DejaVuSans-69" d="M 603 3500 
L 1178 3500 
L 1178 0 
L 603 0 
L 603 3500 
z
M 603 4863 
L 1178 4863 
L 1178 4134 
L 603 4134 
L 603 4863 
z
" transform="scale(0.015625)"/>
       <path id="DejaVuSans-61" d="M 2194 1759 
Q 1497 1759 1228 1600 
Q 959 1441 959 1056 
Q 959 750 1161 570 
Q 1363 391 1709 391 
Q 2188 391 2477 730 
Q 2766 1069 2766 1631 
L 2766 1759 
L 2194 1759 
z
M 3341 1997 
L 3341 0 
L 2766 0 
L 2766 531 
Q 2569 213 2275 61 
Q 1981 -91 1556 -91 
Q 1019 -91 701 211 
Q 384 513 384 1019 
Q 384 1609 779 1909 
Q 1175 2209 1959 2209 
L 2766 2209 
L 2766 2266 
Q 2766 2663 2505 2880 
Q 2244 3097 1772 3097 
Q 1472 3097 1187 3025 
Q 903 2953 641 2809 
L 641 3341 
Q 956 3463 1253 3523 
Q 1550 3584 1831 3584 
Q 2591 3584 2966 3190 
Q 3341 2797 3341 1997 
z
" transform="scale(0.015625)"/>
       <path id="DejaVuSans-66" d="M 2375 4863 
L 2375 4384 
L 1825 4384 
Q 1516 4384 1395 4259 
Q 1275 4134 1275 3809 
L 1275 3500 
L 2222 3500 
L 2222 3053 
L 1275 3053 
L 1275 0 
L 697 0 
L 697 3053 
L 147 3053 
L 147 3500 
L 697 3500 
L 697 3744 
Q 697 4328 969 4595 
Q 1241 4863 1831 4863 
L 2375 4863 
z
" transform="scale(0.015625)"/>
       <path id="DejaVuSans-74" d="M 1172 4494 
L 1172 3500 
L 2356 3500 
L 2356 3053 
L 1172 3053 
L 1172 1153 
Q 1172 725 1289 603 
Q 1406 481 1766 481 
L 2356 481 
L 2356 0 
L 1766 0 
Q 1100 0 847 248 
Q 594 497 594 1153 
L 594 3053 
L 172 3053 
L 172 3500 
L 594 3500 
L 594 4494 
L 1172 4494 
z
" transform="scale(0.015625)"/>
       <path id="DejaVuSans-72" d="M 2631 2963 
Q 2534 3019 2420 3045 
Q 2306 3072 2169 3072 
Q 1681 3072 1420 2755 
Q 1159 2438 1159 1844 
L 1159 0 
L 581 0 
L 581 3500 
L 1159 3500 
L 1159 2956 
Q 1341 3275 1631 3429 
Q 1922 3584 2338 3584 
Q 2397 3584 2469 3576 
Q 2541 3569 2628 3553 
L 2631 2963 
z
" transform="scale(0.015625)"/>
       <path id="DejaVuSans-6b" d="M 581 4863 
L 1159 4863 
L 1159 1991 
L 2875 3500 
L 3609 3500 
L 1753 1863 
L 3688 0 
L 2938 0 
L 1159 1709 
L 1159 0 
L 581 0 
L 581 4863 
z
" transform="scale(0.015625)"/>
       <path id="DejaVuSans-67" d="M 2906 1791 
Q 2906 2416 2648 2759 
Q 2391 3103 1925 3103 
Q 1463 3103 1205 2759 
Q 947 2416 947 1791 
Q 947 1169 1205 825 
Q 1463 481 1925 481 
Q 2391 481 2648 825 
Q 2906 1169 2906 1791 
z
M 3481 434 
Q 3481 -459 3084 -895 
Q 2688 -1331 1869 -1331 
Q 1566 -1331 1297 -1286 
Q 1028 -1241 775 -1147 
L 775 -588 
Q 1028 -725 1275 -790 
Q 1522 -856 1778 -856 
Q 2344 -856 2625 -561 
Q 2906 -266 2906 331 
L 2906 616 
Q 2728 306 2450 153 
Q 2172 0 1784 0 
Q 1141 0 747 490 
Q 353 981 353 1791 
Q 353 2603 747 3093 
Q 1141 3584 1784 3584 
Q 2172 3584 2450 3431 
Q 2728 3278 2906 2969 
L 2906 3500 
L 3481 3500 
L 3481 434 
z
" transform="scale(0.015625)"/>
       <path id="DejaVuSans-6f" d="M 1959 3097 
Q 1497 3097 1228 2736 
Q 959 2375 959 1747 
Q 959 1119 1226 758 
Q 1494 397 1959 397 
Q 2419 397 2687 759 
Q 2956 1122 2956 1747 
Q 2956 2369 2687 2733 
Q 2419 3097 1959 3097 
z
M 1959 3584 
Q 2709 3584 3137 3096 
Q 3566 2609 3566 1747 
Q 3566 888 3137 398 
Q 2709 -91 1959 -91 
Q 1206 -91 779 398 
Q 353 888 353 1747 
Q 353 2609 779 3096 
Q 1206 3584 1959 3584 
z
" transform="scale(0.015625)"/>
       <path id="DejaVuSans-6d" d="M 3328 2828 
Q 3544 3216 3844 3400 
Q 4144 3584 4550 3584 
Q 5097 3584 5394 3201 
Q 5691 2819 5691 2113 
L 5691 0 
L 5113 0 
L 5113 2094 
Q 5113 2597 4934 2840 
Q 4756 3084 4391 3084 
Q 3944 3084 3684 2787 
Q 3425 2491 3425 1978 
L 3425 0 
L 2847 0 
L 2847 2094 
Q 2847 2600 2669 2842 
Q 2491 3084 2119 3084 
Q 1678 3084 1418 2786 
Q 1159 2488 1159 1978 
L 1159 0 
L 581 0 
L 581 3500 
L 1159 3500 
L 1159 2956 
Q 1356 3278 1631 3431 
Q 1906 3584 2284 3584 
Q 2666 3584 2933 3390 
Q 3200 3197 3328 2828 
z
" transform="scale(0.015625)"/>
       <path id="DejaVuSans-70" d="M 1159 525 
L 1159 -1331 
L 581 -1331 
L 581 3500 
L 1159 3500 
L 1159 2969 
Q 1341 3281 1617 3432 
Q 1894 3584 2278 3584 
Q 2916 3584 3314 3078 
Q 3713 2572 3713 1747 
Q 3713 922 3314 415 
Q 2916 -91 2278 -91 
Q 1894 -91 1617 61 
Q 1341 213 1159 525 
z
M 3116 1747 
Q 3116 2381 2855 2742 
Q 2594 3103 2138 3103 
Q 1681 3103 1420 2742 
Q 1159 2381 1159 1747 
Q 1159 1113 1420 752 
Q 1681 391 2138 391 
Q 2594 391 2855 752 
Q 3116 1113 3116 1747 
z
" transform="scale(0.015625)"/>
      </defs>
      <use xlink:href="#DejaVuSans-4d"/>
      <use xlink:href="#DejaVuSans-65" x="86.279297"/>
      <use xlink:href="#DejaVuSans-64" x="147.802734"/>
      <use xlink:href="#DejaVuSans-69" x="211.279297"/>
      <use xlink:href="#DejaVuSans-61" x="239.0625"/>
      <use xlink:href="#DejaVuSans-6e" x="300.341797"/>
      <use xlink:href="#DejaVuSans-20" x="363.720703"/>
      <use xlink:href="#DejaVuSans-66" x="395.507812"/>
      <use xlink:href="#DejaVuSans-69" x="430.712891"/>
      <use xlink:href="#DejaVuSans-6c" x="458.496094"/>
      <use xlink:href="#DejaVuSans-74" x="486.279297"/>
      <use xlink:href="#DejaVuSans-65" x="525.488281"/>
      <use xlink:href="#DejaVuSans-72" x="587.011719"/>
      <use xlink:href="#DejaVuSans-65" x="625.875"/>
      <use xlink:href="#DejaVuSans-64" x="687.398438"/>
      <use xlink:href="#DejaVuSans-20" x="750.875"/>
      <use xlink:href="#DejaVuSans-6b" x="782.662109"/>
      <use xlink:href="#DejaVuSans-65" x="836.947266"/>
      <use xlink:href="#DejaVuSans-79" x="898.470703"/>
      <use xlink:href="#DejaVuSans-20" x="957.650391"/>
      <use xlink:href="#DejaVuSans-73" x="989.4375"/>
      <use xlink:href="#DejaVuSans-63" x="1041.537109"/>
      <use xlink:href="#DejaVuSans-68" x="1096.517578"/>
      <use xlink:href="#DejaVuSans-65" x="1159.896484"/>
      <use xlink:href="#DejaVuSans-64" x="1221.419922"/>
      <use xlink:href="#DejaVuSans-75" x="1284.896484"/>
      <use xlink:href="#DejaVuSans-6c" x="1348.275391"/>
      <use xlink:href="#DejaVuSans-65" x="1376.058594"/>
      <use xlink:href="#DejaVuSans-20" x="1437.582031"/>
      <use xlink:href="#DejaVuSans-61" x="1469.369141"/>
      <use xlink:href="#DejaVuSans-6c" x="1530.648438"/>
      <use xlink:href="#DejaVuSans-67" x="1558.431641"/>
      <use xlink:href="#DejaVuSans-6f" x="1621.908203"/>
      <use xlink:href="#DejaVuSans-72" x="1683.089844"/>
      <use xlink:href="#DejaVuSans-69" x="1724.203125"/>
      <use xlink:href="#DejaVuSans-74" x="1751.986328"/>
      <use xlink:href="#DejaVuSans-68" x="1791.195312"/>
      <use xlink:href="#DejaVuSans-6d" x="1854.574219"/>
      <use xlink:href="#DejaVuSans-20" x="1951.986328"/>
      <use xlink:href="#DejaVuSans-63" x="1983.773438"/>
      <use xlink:href="#DejaVuSans-79" x="2038.753906"/>
      <use xlink:href="#DejaVuSans-63" x="2097.933594"/>
      <use xlink:href="#DejaVuSans-6c" x="2152.914062"/>
      <use xlink:href="#DejaVuSans-65" x="2180.697266"/>
      <use xlink:href="#DejaVuSans-73" x="2242.220703"/>
      <use xlink:href="#DejaVuSans-20" x="2294.320312"/>
      <use xlink:href="#DejaVuSans-70" x="2326.107422"/>
      <use xlink:href="#DejaVuSans-65" x="2389.583984"/>
      <use xlink:href="#DejaVuSans-72" x="2451.107422"/>
      <use xlink:href="#DejaVuSans-20" x="2492.220703"/>
      <use xlink:href="#DejaVuSans-72" x="2524.007812"/>
      <use xlink:href="#DejaVuSans-75" x="2565.121094"/>
      <use xlink:href="#DejaVuSans-6e" x="2628.5"/>
     </g>
    </g>
   </g>
  </g>
 </g>
 <defs>
  <clipPath id="p4150cb8d6c">
   <rect x="57.6" y="41.472" width="357.12" height="266.112"/>
  </clipPath>
 </defs>
</svg>
