<?xml version="1.0" encoding="utf-8" standalone="no"?>
<!DOCTYPE svg PUBLIC "-//W3C//DTD SVG 1.1//EN"
  "http://www.w3.org/Graphics/SVG/1.1/DTD/svg11.dtd">
<svg xmlns:xlink="http://www.w3.org/1999/xlink" width="460.8pt" height="345.6pt" viewBox="0 0 460.8 345.6" xmlns="http://www.w3.org/2000/svg" version="1.1">
 <metadata>
  <rdf:RDF xmlns:dc="http://purl.org/dc/elements/1.1/" xmlns:cc="http://creativecommons.org/ns#" xmlns:rdf="http://www.w3.org/1999/02/22-rdf-syntax-ns#">
   <cc:Work>
    <dc:type rdf:resource="http://purl.org/dc/dcmitype/StillImage"/>
    <dc:date>2023-11-07T12:52:34.705561</dc:date>
    <dc:format>image/svg+xml</dc:format>
    <dc:creator>
     <cc:Agent>
      <dc:title>Matplotlib v3.8.1, https://matplotlib.org/</dc:title>
     </cc:Agent>
    </dc:creator>
   </cc:Work>
  </rdf:RDF>
 </metadata>
 <defs>
  <style type="text/css">*{stroke-linejoin: round; stroke-linecap: butt}</style>
 </defs>
 <g id="figure_1">
  <g id="patch_1">
   <path d="M 0 345.6 
L 460.8 345.6 
L 460.8 0 
L 0 0 
z
" style="fill: #ffffff"/>
  </g>
  <g id="axes_1">
   <g id="patch_2">
    <path d="M 57.6 307.584 
L 414.72 307.584 
L 414.72 41.472 
L 57.6 41.472 
z
" style="fill: #ffffff"/>
   </g>
   <g id="matplotlib.axis_1">
    <g id="xtick_1">
     <g id="line2d_1">
      <defs>
       <path id="m405f74e6a0" d="M 0 0 
L 0 3.5 
" style="stroke: #000000; stroke-width: 0.8"/>
      </defs>
      <g>
       <use xlink:href="#m405f74e6a0" x="73.832727" y="307.584" style="stroke: #000000; stroke-width: 0.8"/>
      </g>
     </g>
     <g id="text_1">
      <!-- 0 -->
      <g transform="translate(70.651477 322.182437) scale(0.1 -0.1)">
       <defs>
        <path id="DejaVuSans-30" d="M 2034 4250 
Q 1547 4250 1301 3770 
Q 1056 3291 1056 2328 
Q 1056 1369 1301 889 
Q 1547 409 2034 409 
Q 2525 409 2770 889 
Q 3016 1369 3016 2328 
Q 3016 3291 2770 3770 
Q 2525 4250 2034 4250 
z
M 2034 4750 
Q 2819 4750 3233 4129 
Q 3647 3509 3647 2328 
Q 3647 1150 3233 529 
Q 2819 -91 2034 -91 
Q 1250 -91 836 529 
Q 422 1150 422 2328 
Q 422 3509 836 4129 
Q 1250 4750 2034 4750 
z
" transform="scale(0.015625)"/>
       </defs>
       <use xlink:href="#DejaVuSans-30"/>
      </g>
     </g>
    </g>
    <g id="xtick_2">
     <g id="line2d_2">
      <g>
       <use xlink:href="#m405f74e6a0" x="153.094091" y="307.584" style="stroke: #000000; stroke-width: 0.8"/>
      </g>
     </g>
     <g id="text_2">
      <!-- 1000 -->
      <g transform="translate(140.369091 322.182437) scale(0.1 -0.1)">
       <defs>
        <path id="DejaVuSans-31" d="M 794 531 
L 1825 531 
L 1825 4091 
L 703 3866 
L 703 4441 
L 1819 4666 
L 2450 4666 
L 2450 531 
L 3481 531 
L 3481 0 
L 794 0 
L 794 531 
z
" transform="scale(0.015625)"/>
       </defs>
       <use xlink:href="#DejaVuSans-31"/>
       <use xlink:href="#DejaVuSans-30" x="63.623047"/>
       <use xlink:href="#DejaVuSans-30" x="127.246094"/>
       <use xlink:href="#DejaVuSans-30" x="190.869141"/>
      </g>
     </g>
    </g>
    <g id="xtick_3">
     <g id="line2d_3">
      <g>
       <use xlink:href="#m405f74e6a0" x="232.355455" y="307.584" style="stroke: #000000; stroke-width: 0.8"/>
      </g>
     </g>
     <g id="text_3">
      <!-- 2000 -->
      <g transform="translate(219.630455 322.182437) scale(0.1 -0.1)">
       <defs>
        <path id="DejaVuSans-32" d="M 1228 531 
L 3431 531 
L 3431 0 
L 469 0 
L 469 531 
Q 828 903 1448 1529 
Q 2069 2156 2228 2338 
Q 2531 2678 2651 2914 
Q 2772 3150 2772 3378 
Q 2772 3750 2511 3984 
Q 2250 4219 1831 4219 
Q 1534 4219 1204 4116 
Q 875 4013 500 3803 
L 500 4441 
Q 881 4594 1212 4672 
Q 1544 4750 1819 4750 
Q 2544 4750 2975 4387 
Q 3406 4025 3406 3419 
Q 3406 3131 3298 2873 
Q 3191 2616 2906 2266 
Q 2828 2175 2409 1742 
Q 1991 1309 1228 531 
z
" transform="scale(0.015625)"/>
       </defs>
       <use xlink:href="#DejaVuSans-32"/>
       <use xlink:href="#DejaVuSans-30" x="63.623047"/>
       <use xlink:href="#DejaVuSans-30" x="127.246094"/>
       <use xlink:href="#DejaVuSans-30" x="190.869141"/>
      </g>
     </g>
    </g>
    <g id="xtick_4">
     <g id="line2d_4">
      <g>
       <use xlink:href="#m405f74e6a0" x="311.616818" y="307.584" style="stroke: #000000; stroke-width: 0.8"/>
      </g>
     </g>
     <g id="text_4">
      <!-- 3000 -->
      <g transform="translate(298.891818 322.182437) scale(0.1 -0.1)">
       <defs>
        <path id="DejaVuSans-33" d="M 2597 2516 
Q 3050 2419 3304 2112 
Q 3559 1806 3559 1356 
Q 3559 666 3084 287 
Q 2609 -91 1734 -91 
Q 1441 -91 1130 -33 
Q 819 25 488 141 
L 488 750 
Q 750 597 1062 519 
Q 1375 441 1716 441 
Q 2309 441 2620 675 
Q 2931 909 2931 1356 
Q 2931 1769 2642 2001 
Q 2353 2234 1838 2234 
L 1294 2234 
L 1294 2753 
L 1863 2753 
Q 2328 2753 2575 2939 
Q 2822 3125 2822 3475 
Q 2822 3834 2567 4026 
Q 2313 4219 1838 4219 
Q 1578 4219 1281 4162 
Q 984 4106 628 3988 
L 628 4550 
Q 988 4650 1302 4700 
Q 1616 4750 1894 4750 
Q 2613 4750 3031 4423 
Q 3450 4097 3450 3541 
Q 3450 3153 3228 2886 
Q 3006 2619 2597 2516 
z
" transform="scale(0.015625)"/>
       </defs>
       <use xlink:href="#DejaVuSans-33"/>
       <use xlink:href="#DejaVuSans-30" x="63.623047"/>
       <use xlink:href="#DejaVuSans-30" x="127.246094"/>
       <use xlink:href="#DejaVuSans-30" x="190.869141"/>
      </g>
     </g>
    </g>
    <g id="xtick_5">
     <g id="line2d_5">
      <g>
       <use xlink:href="#m405f74e6a0" x="390.878182" y="307.584" style="stroke: #000000; stroke-width: 0.8"/>
      </g>
     </g>
     <g id="text_5">
      <!-- 4000 -->
      <g transform="translate(378.153182 322.182437) scale(0.1 -0.1)">
       <defs>
        <path id="DejaVuSans-34" d="M 2419 4116 
L 825 1625 
L 2419 1625 
L 2419 4116 
z
M 2253 4666 
L 3047 4666 
L 3047 1625 
L 3713 1625 
L 3713 1100 
L 3047 1100 
L 3047 0 
L 2419 0 
L 2419 1100 
L 313 1100 
L 313 1709 
L 2253 4666 
z
" transform="scale(0.015625)"/>
       </defs>
       <use xlink:href="#DejaVuSans-34"/>
       <use xlink:href="#DejaVuSans-30" x="63.623047"/>
       <use xlink:href="#DejaVuSans-30" x="127.246094"/>
       <use xlink:href="#DejaVuSans-30" x="190.869141"/>
      </g>
     </g>
    </g>
    <g id="text_6">
     <!-- n -->
     <g transform="translate(232.99125 335.860562) scale(0.1 -0.1)">
      <defs>
       <path id="DejaVuSans-6e" d="M 3513 2113 
L 3513 0 
L 2938 0 
L 2938 2094 
Q 2938 2591 2744 2837 
Q 2550 3084 2163 3084 
Q 1697 3084 1428 2787 
Q 1159 2491 1159 1978 
L 1159 0 
L 581 0 
L 581 3500 
L 1159 3500 
L 1159 2956 
Q 1366 3272 1645 3428 
Q 1925 3584 2291 3584 
Q 2894 3584 3203 3211 
Q 3513 2838 3513 2113 
z
" transform="scale(0.015625)"/>
      </defs>
      <use xlink:href="#DejaVuSans-6e"/>
     </g>
    </g>
   </g>
   <g id="matplotlib.axis_2">
    <g id="ytick_1">
     <g id="line2d_6">
      <defs>
       <path id="m58b053b16e" d="M 0 0 
L -3.5 0 
" style="stroke: #000000; stroke-width: 0.8"/>
      </defs>
      <g>
       <use xlink:href="#m58b053b16e" x="57.6" y="295.488" style="stroke: #000000; stroke-width: 0.8"/>
      </g>
     </g>
     <g id="text_7">
      <!-- 65 -->
      <g transform="translate(37.875 299.287219) scale(0.1 -0.1)">
       <defs>
        <path id="DejaVuSans-36" d="M 2113 2584 
Q 1688 2584 1439 2293 
Q 1191 2003 1191 1497 
Q 1191 994 1439 701 
Q 1688 409 2113 409 
Q 2538 409 2786 701 
Q 3034 994 3034 1497 
Q 3034 2003 2786 2293 
Q 2538 2584 2113 2584 
z
M 3366 4563 
L 3366 3988 
Q 3128 4100 2886 4159 
Q 2644 4219 2406 4219 
Q 1781 4219 1451 3797 
Q 1122 3375 1075 2522 
Q 1259 2794 1537 2939 
Q 1816 3084 2150 3084 
Q 2853 3084 3261 2657 
Q 3669 2231 3669 1497 
Q 3669 778 3244 343 
Q 2819 -91 2113 -91 
Q 1303 -91 875 529 
Q 447 1150 447 2328 
Q 447 3434 972 4092 
Q 1497 4750 2381 4750 
Q 2619 4750 2861 4703 
Q 3103 4656 3366 4563 
z
" transform="scale(0.015625)"/>
        <path id="DejaVuSans-35" d="M 691 4666 
L 3169 4666 
L 3169 4134 
L 1269 4134 
L 1269 2991 
Q 1406 3038 1543 3061 
Q 1681 3084 1819 3084 
Q 2600 3084 3056 2656 
Q 3513 2228 3513 1497 
Q 3513 744 3044 326 
Q 2575 -91 1722 -91 
Q 1428 -91 1123 -41 
Q 819 9 494 109 
L 494 744 
Q 775 591 1075 516 
Q 1375 441 1709 441 
Q 2250 441 2565 725 
Q 2881 1009 2881 1497 
Q 2881 1984 2565 2268 
Q 2250 2553 1709 2553 
Q 1456 2553 1204 2497 
Q 953 2441 691 2322 
L 691 4666 
z
" transform="scale(0.015625)"/>
       </defs>
       <use xlink:href="#DejaVuSans-36"/>
       <use xlink:href="#DejaVuSans-35" x="63.623047"/>
      </g>
     </g>
    </g>
    <g id="ytick_2">
     <g id="line2d_7">
      <g>
       <use xlink:href="#m58b053b16e" x="57.6" y="252.288" style="stroke: #000000; stroke-width: 0.8"/>
      </g>
     </g>
     <g id="text_8">
      <!-- 70 -->
      <g transform="translate(37.875 256.087219) scale(0.1 -0.1)">
       <defs>
        <path id="DejaVuSans-37" d="M 525 4666 
L 3525 4666 
L 3525 4397 
L 1831 0 
L 1172 0 
L 2766 4134 
L 525 4134 
L 525 4666 
z
" transform="scale(0.015625)"/>
       </defs>
       <use xlink:href="#DejaVuSans-37"/>
       <use xlink:href="#DejaVuSans-30" x="63.623047"/>
      </g>
     </g>
    </g>
    <g id="ytick_3">
     <g id="line2d_8">
      <g>
       <use xlink:href="#m58b053b16e" x="57.6" y="209.088" style="stroke: #000000; stroke-width: 0.8"/>
      </g>
     </g>
     <g id="text_9">
      <!-- 75 -->
      <g transform="translate(37.875 212.887219) scale(0.1 -0.1)">
       <use xlink:href="#DejaVuSans-37"/>
       <use xlink:href="#DejaVuSans-35" x="63.623047"/>
      </g>
     </g>
    </g>
    <g id="ytick_4">
     <g id="line2d_9">
      <g>
       <use xlink:href="#m58b053b16e" x="57.6" y="165.888" style="stroke: #000000; stroke-width: 0.8"/>
      </g>
     </g>
     <g id="text_10">
      <!-- 80 -->
      <g transform="translate(37.875 169.687219) scale(0.1 -0.1)">
       <defs>
        <path id="DejaVuSans-38" d="M 2034 2216 
Q 1584 2216 1326 1975 
Q 1069 1734 1069 1313 
Q 1069 891 1326 650 
Q 1584 409 2034 409 
Q 2484 409 2743 651 
Q 3003 894 3003 1313 
Q 3003 1734 2745 1975 
Q 2488 2216 2034 2216 
z
M 1403 2484 
Q 997 2584 770 2862 
Q 544 3141 544 3541 
Q 544 4100 942 4425 
Q 1341 4750 2034 4750 
Q 2731 4750 3128 4425 
Q 3525 4100 3525 3541 
Q 3525 3141 3298 2862 
Q 3072 2584 2669 2484 
Q 3125 2378 3379 2068 
Q 3634 1759 3634 1313 
Q 3634 634 3220 271 
Q 2806 -91 2034 -91 
Q 1263 -91 848 271 
Q 434 634 434 1313 
Q 434 1759 690 2068 
Q 947 2378 1403 2484 
z
M 1172 3481 
Q 1172 3119 1398 2916 
Q 1625 2713 2034 2713 
Q 2441 2713 2670 2916 
Q 2900 3119 2900 3481 
Q 2900 3844 2670 4047 
Q 2441 4250 2034 4250 
Q 1625 4250 1398 4047 
Q 1172 3844 1172 3481 
z
" transform="scale(0.015625)"/>
       </defs>
       <use xlink:href="#DejaVuSans-38"/>
       <use xlink:href="#DejaVuSans-30" x="63.623047"/>
      </g>
     </g>
    </g>
    <g id="ytick_5">
     <g id="line2d_10">
      <g>
       <use xlink:href="#m58b053b16e" x="57.6" y="122.688" style="stroke: #000000; stroke-width: 0.8"/>
      </g>
     </g>
     <g id="text_11">
      <!-- 85 -->
      <g transform="translate(37.875 126.487219) scale(0.1 -0.1)">
       <use xlink:href="#DejaVuSans-38"/>
       <use xlink:href="#DejaVuSans-35" x="63.623047"/>
      </g>
     </g>
    </g>
    <g id="ytick_6">
     <g id="line2d_11">
      <g>
       <use xlink:href="#m58b053b16e" x="57.6" y="79.488" style="stroke: #000000; stroke-width: 0.8"/>
      </g>
     </g>
     <g id="text_12">
      <!-- 90 -->
      <g transform="translate(37.875 83.287219) scale(0.1 -0.1)">
       <defs>
        <path id="DejaVuSans-39" d="M 703 97 
L 703 672 
Q 941 559 1184 500 
Q 1428 441 1663 441 
Q 2288 441 2617 861 
Q 2947 1281 2994 2138 
Q 2813 1869 2534 1725 
Q 2256 1581 1919 1581 
Q 1219 1581 811 2004 
Q 403 2428 403 3163 
Q 403 3881 828 4315 
Q 1253 4750 1959 4750 
Q 2769 4750 3195 4129 
Q 3622 3509 3622 2328 
Q 3622 1225 3098 567 
Q 2575 -91 1691 -91 
Q 1453 -91 1209 -44 
Q 966 3 703 97 
z
M 1959 2075 
Q 2384 2075 2632 2365 
Q 2881 2656 2881 3163 
Q 2881 3666 2632 3958 
Q 2384 4250 1959 4250 
Q 1534 4250 1286 3958 
Q 1038 3666 1038 3163 
Q 1038 2656 1286 2365 
Q 1534 2075 1959 2075 
z
" transform="scale(0.015625)"/>
       </defs>
       <use xlink:href="#DejaVuSans-39"/>
       <use xlink:href="#DejaVuSans-30" x="63.623047"/>
      </g>
     </g>
    </g>
    <g id="text_13">
     <!-- Cycles -->
     <g transform="translate(31.795312 190.798312) rotate(-90) scale(0.1 -0.1)">
      <defs>
       <path id="DejaVuSans-43" d="M 4122 4306 
L 4122 3641 
Q 3803 3938 3442 4084 
Q 3081 4231 2675 4231 
Q 1875 4231 1450 3742 
Q 1025 3253 1025 2328 
Q 1025 1406 1450 917 
Q 1875 428 2675 428 
Q 3081 428 3442 575 
Q 3803 722 4122 1019 
L 4122 359 
Q 3791 134 3420 21 
Q 3050 -91 2638 -91 
Q 1578 -91 968 557 
Q 359 1206 359 2328 
Q 359 3453 968 4101 
Q 1578 4750 2638 4750 
Q 3056 4750 3426 4639 
Q 3797 4528 4122 4306 
z
" transform="scale(0.015625)"/>
       <path id="DejaVuSans-79" d="M 2059 -325 
Q 1816 -950 1584 -1140 
Q 1353 -1331 966 -1331 
L 506 -1331 
L 506 -850 
L 844 -850 
Q 1081 -850 1212 -737 
Q 1344 -625 1503 -206 
L 1606 56 
L 191 3500 
L 800 3500 
L 1894 763 
L 2988 3500 
L 3597 3500 
L 2059 -325 
z
" transform="scale(0.015625)"/>
       <path id="DejaVuSans-63" d="M 3122 3366 
L 3122 2828 
Q 2878 2963 2633 3030 
Q 2388 3097 2138 3097 
Q 1578 3097 1268 2742 
Q 959 2388 959 1747 
Q 959 1106 1268 751 
Q 1578 397 2138 397 
Q 2388 397 2633 464 
Q 2878 531 3122 666 
L 3122 134 
Q 2881 22 2623 -34 
Q 2366 -91 2075 -91 
Q 1284 -91 818 406 
Q 353 903 353 1747 
Q 353 2603 823 3093 
Q 1294 3584 2113 3584 
Q 2378 3584 2631 3529 
Q 2884 3475 3122 3366 
z
" transform="scale(0.015625)"/>
       <path id="DejaVuSans-6c" d="M 603 4863 
L 1178 4863 
L 1178 0 
L 603 0 
L 603 4863 
z
" transform="scale(0.015625)"/>
       <path id="DejaVuSans-65" d="M 3597 1894 
L 3597 1613 
L 953 1613 
Q 991 1019 1311 708 
Q 1631 397 2203 397 
Q 2534 397 2845 478 
Q 3156 559 3463 722 
L 3463 178 
Q 3153 47 2828 -22 
Q 2503 -91 2169 -91 
Q 1331 -91 842 396 
Q 353 884 353 1716 
Q 353 2575 817 3079 
Q 1281 3584 2069 3584 
Q 2775 3584 3186 3129 
Q 3597 2675 3597 1894 
z
M 3022 2063 
Q 3016 2534 2758 2815 
Q 2500 3097 2075 3097 
Q 1594 3097 1305 2825 
Q 1016 2553 972 2059 
L 3022 2063 
z
" transform="scale(0.015625)"/>
       <path id="DejaVuSans-73" d="M 2834 3397 
L 2834 2853 
Q 2591 2978 2328 3040 
Q 2066 3103 1784 3103 
Q 1356 3103 1142 2972 
Q 928 2841 928 2578 
Q 928 2378 1081 2264 
Q 1234 2150 1697 2047 
L 1894 2003 
Q 2506 1872 2764 1633 
Q 3022 1394 3022 966 
Q 3022 478 2636 193 
Q 2250 -91 1575 -91 
Q 1294 -91 989 -36 
Q 684 19 347 128 
L 347 722 
Q 666 556 975 473 
Q 1284 391 1588 391 
Q 1994 391 2212 530 
Q 2431 669 2431 922 
Q 2431 1156 2273 1281 
Q 2116 1406 1581 1522 
L 1381 1569 
Q 847 1681 609 1914 
Q 372 2147 372 2553 
Q 372 3047 722 3315 
Q 1072 3584 1716 3584 
Q 2034 3584 2315 3537 
Q 2597 3491 2834 3397 
z
" transform="scale(0.015625)"/>
      </defs>
      <use xlink:href="#DejaVuSans-43"/>
      <use xlink:href="#DejaVuSans-79" x="69.824219"/>
      <use xlink:href="#DejaVuSans-63" x="129.003906"/>
      <use xlink:href="#DejaVuSans-6c" x="183.984375"/>
      <use xlink:href="#DejaVuSans-65" x="211.767578"/>
      <use xlink:href="#DejaVuSans-73" x="273.291016"/>
     </g>
    </g>
   </g>
   <g id="line2d_12">
    <path d="M 73.832727 226.368 
L 73.99125 209.088 
L 74.149773 209.088 
L 74.308295 226.368 
L 74.466818 209.088 
L 74.54608 209.088 
L 74.783864 243.648 
L 74.942386 243.648 
L 75.100909 209.088 
L 75.18017 209.088 
L 75.338693 226.368 
L 75.497216 226.368 
L 75.655739 209.088 
L 75.972784 209.088 
L 76.131307 226.368 
L 76.369091 226.368 
L 76.527614 209.088 
L 76.606875 209.088 
L 76.765398 226.368 
L 76.92392 209.088 
L 77.003182 209.088 
L 77.161705 200.448 
L 77.320227 209.088 
L 77.716534 209.088 
L 77.875057 226.368 
L 78.271364 226.368 
L 78.429886 209.088 
L 78.66767 209.088 
L 78.826193 226.368 
L 78.984716 226.368 
L 79.143239 209.088 
L 79.301761 209.088 
L 79.460284 226.368 
L 79.618807 209.088 
L 79.77733 226.368 
L 80.015114 226.368 
L 80.41142 157.248 
L 80.569943 243.648 
L 80.728466 174.528 
L 80.886989 200.448 
L 81.045511 209.088 
L 81.52108 209.088 
L 81.758864 174.528 
L 81.917386 209.088 
L 82.313693 209.088 
L 82.472216 200.448 
L 82.630739 209.088 
L 83.106307 209.088 
L 83.26483 226.368 
L 83.423352 209.088 
L 84.295227 209.088 
L 84.374489 226.368 
L 84.533011 209.088 
L 85.325625 209.088 
L 85.404886 174.528 
L 85.563409 226.368 
L 85.721932 226.368 
L 85.880455 209.088 
L 86.038977 226.368 
L 86.118239 226.368 
L 86.276761 209.088 
L 86.435284 226.368 
L 86.593807 209.088 
L 86.673068 209.088 
L 86.831591 226.368 
L 86.910852 226.368 
L 87.069375 209.088 
L 87.227898 226.368 
L 87.544943 226.368 
L 87.703466 209.088 
L 87.861989 209.088 
L 87.94125 226.368 
L 88.099773 209.088 
L 88.179034 209.088 
L 88.337557 226.368 
L 88.416818 226.368 
L 88.575341 209.088 
L 89.050909 209.088 
L 89.209432 226.368 
L 89.685 226.368 
L 89.843523 209.088 
L 90.319091 209.088 
L 90.477614 226.368 
L 90.636136 209.088 
L 91.032443 209.088 
L 91.190966 226.368 
L 91.270227 226.368 
L 91.42875 209.088 
L 91.508011 209.088 
L 91.666534 226.368 
L 91.825057 209.088 
L 92.379886 209.088 
L 92.459148 226.368 
L 92.696932 174.528 
L 92.855455 226.368 
L 93.013977 226.368 
L 93.1725 209.088 
L 93.251761 209.088 
L 93.331023 62.208 
L 93.489545 209.088 
L 93.806591 209.088 
L 93.965114 226.368 
L 94.044375 226.368 
L 94.282159 174.528 
L 94.440682 226.368 
L 94.599205 226.368 
L 94.757727 209.088 
L 94.91625 209.088 
L 95.074773 243.648 
L 95.233295 209.088 
L 95.47108 209.088 
L 95.629602 226.368 
L 96.342955 226.368 
L 96.422216 209.088 
L 96.580739 226.368 
L 96.66 226.368 
L 96.818523 209.088 
L 97.611136 209.088 
L 97.690398 226.368 
L 97.84892 209.088 
L 98.562273 209.088 
L 98.720795 295.488 
L 98.800057 295.488 
L 99.037841 209.088 
L 99.196364 226.368 
L 99.354886 191.808 
L 99.59267 226.368 
L 99.751193 226.368 
L 99.830455 209.088 
L 99.988977 226.368 
L 100.1475 226.368 
L 100.306023 209.088 
L 101.177898 209.088 
L 101.257159 226.368 
L 101.415682 209.088 
L 101.970511 209.088 
L 102.049773 157.248 
L 102.208295 209.088 
L 102.604602 209.088 
L 102.683864 226.368 
L 102.763125 209.088 
L 102.921648 226.368 
L 103.159432 226.368 
L 103.317955 209.088 
L 104.031307 209.088 
L 104.18983 243.648 
L 104.348352 226.368 
L 104.506875 226.368 
L 104.586136 209.088 
L 104.665398 226.368 
L 104.82392 209.088 
L 104.903182 209.088 
L 105.061705 200.448 
L 105.220227 209.088 
L 106.092102 209.088 
L 106.250625 226.368 
L 106.329886 226.368 
L 106.488409 174.528 
L 106.646932 209.088 
L 106.963977 209.088 
L 107.1225 226.368 
L 107.281023 226.368 
L 107.439545 209.088 
L 107.67733 209.088 
L 107.835852 226.368 
L 107.915114 226.368 
L 107.994375 209.088 
L 108.073636 226.368 
L 108.152898 209.088 
L 108.232159 226.368 
L 108.31142 209.088 
L 108.390682 226.368 
L 108.469943 209.088 
L 108.628466 226.368 
L 109.183295 226.368 
L 109.341818 209.088 
L 109.42108 209.088 
L 109.579602 226.368 
L 109.738125 209.088 
L 110.05517 209.088 
L 110.213693 226.368 
L 110.292955 226.368 
L 110.451477 174.528 
L 110.61 209.088 
L 110.847784 209.088 
L 111.006307 226.368 
L 111.16483 209.088 
L 111.323352 226.368 
L 111.481875 209.088 
L 111.640398 226.368 
L 111.719659 226.368 
L 111.878182 209.088 
L 112.195227 209.088 
L 112.274489 157.248 
L 112.433011 209.088 
L 112.591534 226.368 
L 112.750057 226.368 
L 112.90858 209.088 
L 113.146364 209.088 
L 113.304886 226.368 
L 113.463409 209.088 
L 113.701193 209.088 
L 113.859716 226.368 
L 113.938977 209.088 
L 114.0975 139.968 
L 114.176761 139.968 
L 114.335284 209.088 
L 114.493807 200.448 
L 114.969375 243.648 
L 115.048636 295.488 
L 115.207159 226.368 
L 115.444943 226.368 
L 115.603466 209.088 
L 115.761989 209.088 
L 115.84125 226.368 
L 115.920511 209.088 
L 115.999773 226.368 
L 116.158295 209.088 
L 116.713125 209.088 
L 116.792386 226.368 
L 116.871648 209.088 
L 117.03017 139.968 
L 117.109432 139.968 
L 117.188693 209.088 
L 117.267955 139.968 
L 117.347216 209.088 
L 117.426477 157.248 
L 117.505739 191.808 
L 117.585 157.248 
L 117.822784 226.368 
L 117.981307 226.368 
L 118.13983 209.088 
L 118.536136 209.088 
L 118.694659 243.648 
L 118.853182 226.368 
L 118.932443 226.368 
L 119.090966 209.088 
L 119.249489 209.088 
L 119.32875 226.368 
L 119.487273 209.088 
L 119.725057 209.088 
L 119.88358 174.528 
L 120.042102 209.088 
L 120.121364 209.088 
L 120.279886 226.368 
L 120.359148 226.368 
L 120.51767 209.088 
L 120.993239 209.088 
L 121.151761 226.368 
L 121.231023 226.368 
L 121.389545 209.088 
L 121.468807 209.088 
L 121.548068 226.368 
L 121.62733 209.088 
L 121.785852 226.368 
L 122.023636 226.368 
L 122.102898 209.088 
L 122.182159 226.368 
L 122.340682 209.088 
L 122.419943 209.088 
L 122.578466 226.368 
L 122.736989 209.088 
L 122.895511 226.368 
L 123.054034 209.088 
L 123.212557 226.368 
L 123.37108 157.248 
L 123.529602 209.088 
L 124.163693 209.088 
L 124.322216 226.368 
L 124.480739 209.088 
L 124.639261 226.368 
L 124.797784 209.088 
L 124.877045 209.088 
L 125.035568 226.368 
L 125.273352 226.368 
L 125.431875 209.088 
L 125.986705 209.088 
L 126.145227 226.368 
L 126.462273 226.368 
L 126.620795 157.248 
L 126.779318 209.088 
L 126.937841 226.368 
L 127.017102 226.368 
L 127.175625 209.088 
L 127.334148 226.368 
L 127.49267 209.088 
L 127.571932 209.088 
L 127.730455 226.368 
L 127.888977 226.368 
L 128.0475 209.088 
L 128.126761 200.448 
L 128.206023 209.088 
L 128.285284 200.448 
L 128.443807 157.248 
L 128.60233 157.248 
L 128.760852 200.448 
L 128.840114 200.448 
L 128.998636 209.088 
L 129.157159 139.968 
L 129.394943 226.368 
L 129.870511 226.368 
L 130.029034 209.088 
L 130.266818 209.088 
L 130.34608 226.368 
L 130.425341 209.088 
L 130.583864 226.368 
L 130.98017 226.368 
L 131.138693 209.088 
L 131.217955 209.088 
L 131.376477 226.368 
L 131.535 209.088 
L 131.614261 209.088 
L 131.772784 200.448 
L 131.931307 209.088 
L 132.08983 209.088 
L 132.169091 226.368 
L 132.327614 209.088 
L 132.644659 209.088 
L 132.72392 226.368 
L 132.882443 209.088 
L 133.120227 209.088 
L 133.199489 226.368 
L 133.27875 209.088 
L 133.437273 226.368 
L 133.516534 226.368 
L 133.675057 209.088 
L 133.83358 226.368 
L 133.912841 226.368 
L 134.071364 209.088 
L 134.309148 243.648 
L 134.46767 226.368 
L 134.705455 226.368 
L 134.863977 209.088 
L 134.943239 209.088 
L 135.181023 243.648 
L 135.498068 157.248 
L 135.656591 209.088 
L 135.735852 226.368 
L 135.815114 209.088 
L 135.973636 226.368 
L 136.052898 226.368 
L 136.21142 209.088 
L 136.845511 209.088 
L 136.924773 200.448 
L 137.083295 157.248 
L 137.241818 226.368 
L 137.400341 226.368 
L 137.558864 157.248 
L 137.717386 226.368 
L 137.875909 209.088 
L 138.113693 209.088 
L 138.272216 226.368 
L 138.51 226.368 
L 138.827045 165.888 
L 138.985568 209.088 
L 139.69892 209.088 
L 139.857443 200.448 
L 140.015966 209.088 
L 140.570795 209.088 
L 140.729318 157.248 
L 140.887841 226.368 
L 141.046364 226.368 
L 141.125625 209.088 
L 141.204886 226.368 
L 141.284148 209.088 
L 141.363409 226.368 
L 141.521932 209.088 
L 141.838977 209.088 
L 141.9975 226.368 
L 142.156023 209.088 
L 142.235284 200.448 
L 142.314545 226.368 
L 142.473068 209.088 
L 142.790114 209.088 
L 142.948636 165.888 
L 143.107159 226.368 
L 143.265682 226.368 
L 143.424205 209.088 
L 143.661989 209.088 
L 143.74125 157.248 
L 143.899773 226.368 
L 143.979034 226.368 
L 144.137557 209.088 
L 144.29608 226.368 
L 144.613125 226.368 
L 144.771648 209.088 
L 144.93017 226.368 
L 145.088693 226.368 
L 145.247216 243.648 
L 145.405739 209.088 
L 145.485 209.088 
L 145.643523 226.368 
L 145.722784 226.368 
L 145.881307 209.088 
L 146.03983 226.368 
L 146.198352 209.088 
L 146.277614 209.088 
L 146.356875 243.648 
L 146.753182 174.528 
L 146.832443 174.528 
L 146.990966 226.368 
L 147.070227 226.368 
L 147.149489 174.528 
L 147.22875 209.088 
L 147.308011 174.528 
L 147.387273 209.088 
L 147.466534 191.808 
L 147.545795 226.368 
L 147.704318 209.088 
L 147.862841 209.088 
L 147.942102 226.368 
L 148.021364 209.088 
L 148.179886 226.368 
L 148.338409 226.368 
L 148.576193 174.528 
L 148.734716 209.088 
L 149.52733 209.088 
L 149.685852 226.368 
L 150.082159 226.368 
L 150.240682 209.088 
L 150.874773 209.088 
L 151.033295 226.368 
L 151.112557 226.368 
L 151.27108 209.088 
L 151.429602 209.088 
L 151.588125 226.368 
L 151.667386 226.368 
L 151.825909 209.088 
L 152.301477 209.088 
L 152.46 226.368 
L 152.539261 226.368 
L 152.697784 209.088 
L 152.777045 209.088 
L 152.935568 226.368 
L 153.094091 209.088 
L 153.490398 209.088 
L 153.569659 157.248 
L 153.728182 209.088 
L 153.807443 209.088 
L 153.886705 226.368 
L 153.965966 209.088 
L 154.045227 226.368 
L 154.20375 209.088 
L 154.283011 209.088 
L 154.441534 226.368 
L 154.600057 209.088 
L 154.837841 209.088 
L 154.996364 200.448 
L 155.154886 226.368 
L 155.471932 226.368 
L 155.630455 191.808 
L 155.788977 209.088 
L 155.868239 209.088 
L 156.026761 226.368 
L 156.423068 226.368 
L 156.581591 209.088 
L 156.819375 209.088 
L 156.898636 226.368 
L 156.977898 209.088 
L 157.057159 226.368 
L 157.13642 209.088 
L 157.294943 226.368 
L 157.611989 226.368 
L 157.770511 209.088 
L 158.008295 209.088 
L 158.166818 226.368 
L 158.325341 209.088 
L 158.800909 209.088 
L 159.038693 243.648 
L 159.435 157.248 
L 159.593523 226.368 
L 159.910568 226.368 
L 160.069091 209.088 
L 160.227614 226.368 
L 160.386136 209.088 
L 160.465398 209.088 
L 160.544659 226.368 
L 160.62392 209.088 
L 160.703182 226.368 
L 160.861705 174.528 
L 160.940966 174.528 
L 161.099489 209.088 
L 161.17875 209.088 
L 161.337273 226.368 
L 161.495795 226.368 
L 161.654318 209.088 
L 162.129886 209.088 
L 162.209148 226.368 
L 162.36767 191.808 
L 162.446932 191.808 
L 162.605455 209.088 
L 162.684716 209.088 
L 162.843239 226.368 
L 162.9225 226.368 
L 163.081023 209.088 
L 163.239545 226.368 
L 163.398068 209.088 
L 163.635852 209.088 
L 163.794375 226.368 
L 163.952898 209.088 
L 164.11142 226.368 
L 164.190682 226.368 
L 164.349205 209.088 
L 164.904034 209.088 
L 165.062557 226.368 
L 165.458864 226.368 
L 165.617386 209.088 
L 165.85517 209.088 
L 166.092955 243.648 
L 166.251477 209.088 
L 166.330739 209.088 
L 166.41 191.808 
L 166.489261 209.088 
L 166.568523 157.248 
L 166.727045 226.368 
L 166.806307 226.368 
L 166.96483 209.088 
L 167.361136 209.088 
L 167.440398 157.248 
L 167.59892 209.088 
L 167.757443 209.088 
L 167.915966 226.368 
L 167.995227 226.368 
L 168.15375 209.088 
L 169.104886 209.088 
L 169.263409 226.368 
L 169.421932 226.368 
L 169.580455 209.088 
L 170.056023 209.088 
L 170.214545 226.368 
L 170.690114 226.368 
L 170.848636 209.088 
L 171.007159 209.088 
L 171.08642 226.368 
L 171.165682 209.088 
L 171.324205 226.368 
L 171.403466 226.368 
L 171.561989 209.088 
L 171.64125 209.088 
L 171.720511 226.368 
L 171.879034 209.088 
L 172.19608 209.088 
L 172.354602 226.368 
L 172.513125 209.088 
L 172.83017 209.088 
L 172.909432 200.448 
L 172.988693 157.248 
L 173.067955 174.528 
L 173.147216 174.528 
L 173.305739 209.088 
L 173.464261 226.368 
L 173.781307 226.368 
L 173.93983 209.088 
L 174.494659 209.088 
L 174.653182 226.368 
L 174.811705 157.248 
L 174.970227 226.368 
L 175.12875 209.088 
L 175.208011 209.088 
L 175.366534 226.368 
L 175.604318 226.368 
L 175.762841 209.088 
L 175.842102 209.088 
L 176.000625 226.368 
L 176.079886 226.368 
L 176.159148 209.088 
L 176.238409 226.368 
L 176.31767 209.088 
L 176.396932 243.648 
L 176.555455 209.088 
L 176.713977 209.088 
L 176.8725 226.368 
L 177.031023 209.088 
L 177.268807 209.088 
L 177.348068 174.528 
L 177.42733 209.088 
L 177.506591 157.248 
L 177.585852 226.368 
L 177.665114 209.088 
L 177.902898 209.088 
L 178.06142 226.368 
L 178.140682 209.088 
L 178.299205 157.248 
L 178.457727 226.368 
L 178.61625 209.088 
L 178.695511 226.368 
L 178.854034 295.488 
L 178.933295 295.488 
L 179.17108 209.088 
L 179.329602 226.368 
L 179.488125 209.088 
L 180.122216 209.088 
L 180.201477 226.368 
L 180.36 209.088 
L 180.518523 209.088 
L 180.597784 226.368 
L 180.677045 209.088 
L 180.756307 226.368 
L 180.835568 209.088 
L 180.91483 226.368 
L 180.994091 209.088 
L 181.152614 226.368 
L 181.231875 226.368 
L 181.390398 209.088 
L 181.469659 209.088 
L 181.628182 226.368 
L 181.865966 226.368 
L 182.024489 209.088 
L 182.420795 209.088 
L 182.500057 226.368 
L 182.65858 209.088 
L 182.817102 209.088 
L 182.975625 226.368 
L 183.054886 226.368 
L 183.134148 209.088 
L 183.213409 226.368 
L 183.371932 209.088 
L 183.530455 209.088 
L 183.609716 226.368 
L 183.688977 209.088 
L 183.768239 243.648 
L 183.926761 209.088 
L 184.006023 209.088 
L 184.164545 226.368 
L 184.40233 226.368 
L 184.560852 209.088 
L 184.957159 209.088 
L 185.115682 226.368 
L 185.274205 209.088 
L 185.353466 209.088 
L 185.432727 157.248 
L 185.59125 209.088 
L 185.749773 209.088 
L 185.829034 226.368 
L 185.987557 209.088 
L 186.463125 209.088 
L 186.621648 226.368 
L 186.700909 226.368 
L 186.859432 209.088 
L 186.938693 209.088 
L 187.097216 226.368 
L 187.255739 209.088 
L 187.335 209.088 
L 187.414261 226.368 
L 187.572784 209.088 
L 187.731307 209.088 
L 187.88983 226.368 
L 188.048352 209.088 
L 188.206875 226.368 
L 188.286136 226.368 
L 188.365398 157.248 
L 188.52392 209.088 
L 188.603182 209.088 
L 188.682443 226.368 
L 188.840966 209.088 
L 189.395795 209.088 
L 189.554318 226.368 
L 189.792102 226.368 
L 189.871364 209.088 
L 190.029886 157.248 
L 190.109148 165.888 
L 190.26767 209.088 
L 190.981023 209.088 
L 191.060284 174.528 
L 191.218807 209.088 
L 191.615114 209.088 
L 191.694375 226.368 
L 191.932159 174.528 
L 192.090682 209.088 
L 192.328466 209.088 
L 192.486989 226.368 
L 192.645511 226.368 
L 192.883295 191.808 
L 193.12108 226.368 
L 193.358864 226.368 
L 193.517386 209.088 
L 193.675909 226.368 
L 194.230739 226.368 
L 194.389261 209.088 
L 194.627045 209.088 
L 194.706307 191.808 
L 194.86483 226.368 
L 195.102614 226.368 
L 195.261136 209.088 
L 195.49892 209.088 
L 195.657443 191.808 
L 195.736705 191.808 
L 195.895227 209.088 
L 196.133011 209.088 
L 196.291534 226.368 
L 196.767102 226.368 
L 196.925625 209.088 
L 197.718239 209.088 
L 197.876761 226.368 
L 197.956023 226.368 
L 198.114545 209.088 
L 198.193807 209.088 
L 198.35233 226.368 
L 198.590114 191.808 
L 198.827898 226.368 
L 199.144943 226.368 
L 199.303466 209.088 
L 199.54125 209.088 
L 199.699773 226.368 
L 199.858295 209.088 
L 199.937557 209.088 
L 200.09608 226.368 
L 200.175341 226.368 
L 200.333864 209.088 
L 200.492386 226.368 
L 200.571648 226.368 
L 200.73017 209.088 
L 200.809432 209.088 
L 200.967955 226.368 
L 201.126477 226.368 
L 201.205739 209.088 
L 201.285 226.368 
L 201.522784 191.808 
L 201.602045 191.808 
L 201.760568 226.368 
L 201.83983 209.088 
L 201.919091 226.368 
L 201.998352 209.088 
L 202.156875 226.368 
L 202.315398 226.368 
L 202.394659 209.088 
L 202.632443 243.648 
L 202.870227 209.088 
L 203.02875 226.368 
L 203.187273 209.088 
L 203.266534 209.088 
L 203.425057 226.368 
L 203.504318 226.368 
L 203.662841 209.088 
L 203.900625 209.088 
L 203.979886 174.528 
L 204.138409 209.088 
L 204.21767 209.088 
L 204.376193 157.248 
L 204.534716 209.088 
L 205.168807 209.088 
L 205.248068 226.368 
L 205.32733 209.088 
L 205.485852 226.368 
L 205.644375 226.368 
L 205.802898 209.088 
L 206.199205 209.088 
L 206.357727 226.368 
L 206.51625 226.368 
L 206.595511 209.088 
L 206.754034 226.368 
L 206.833295 226.368 
L 206.991818 209.088 
L 207.07108 209.088 
L 207.150341 157.248 
L 207.229602 174.528 
L 207.308864 174.528 
L 207.467386 209.088 
L 207.625909 209.088 
L 207.784432 226.368 
L 207.863693 226.368 
L 208.022216 209.088 
L 208.497784 209.088 
L 208.577045 226.368 
L 208.735568 209.088 
L 209.052614 209.088 
L 209.211136 226.368 
L 209.528182 226.368 
L 209.686705 209.088 
L 210.479318 209.088 
L 210.637841 226.368 
L 210.875625 226.368 
L 211.034148 209.088 
L 211.19267 226.368 
L 211.271932 226.368 
L 211.430455 209.088 
L 211.588977 209.088 
L 211.7475 191.808 
L 211.826761 191.808 
L 211.906023 157.248 
L 212.064545 209.088 
L 213.174205 209.088 
L 213.332727 226.368 
L 213.966818 226.368 
L 214.04608 209.088 
L 214.204602 226.368 
L 214.283864 226.368 
L 214.442386 209.088 
L 214.759432 209.088 
L 214.917955 226.368 
L 215.076477 209.088 
L 215.472784 209.088 
L 215.78983 157.248 
L 215.869091 157.248 
L 216.027614 209.088 
L 216.106875 226.368 
L 216.344659 165.888 
L 216.503182 209.088 
L 216.740966 209.088 
L 216.899489 226.368 
L 216.97875 226.368 
L 217.137273 209.088 
L 217.295795 226.368 
L 217.454318 157.248 
L 217.692102 226.368 
L 217.771364 209.088 
L 217.929886 226.368 
L 218.009148 226.368 
L 218.16767 243.648 
L 218.326193 209.088 
L 218.484716 209.088 
L 218.563977 200.448 
L 218.643239 226.368 
L 218.801761 209.088 
L 218.881023 209.088 
L 219.039545 226.368 
L 219.27733 226.368 
L 219.435852 209.088 
L 219.594375 209.088 
L 219.673636 226.368 
L 219.752898 209.088 
L 219.832159 226.368 
L 219.990682 209.088 
L 220.46625 209.088 
L 220.624773 226.368 
L 220.941818 226.368 
L 221.100341 209.088 
L 221.179602 209.088 
L 221.338125 226.368 
L 221.496648 209.088 
L 221.734432 209.088 
L 221.892955 226.368 
L 222.051477 209.088 
L 222.289261 209.088 
L 222.447784 200.448 
L 222.606307 209.088 
L 222.76483 209.088 
L 222.844091 226.368 
L 223.002614 209.088 
L 223.319659 209.088 
L 223.478182 226.368 
L 223.795227 226.368 
L 223.95375 209.088 
L 224.746364 209.088 
L 224.825625 226.368 
L 224.984148 209.088 
L 225.063409 209.088 
L 225.221932 226.368 
L 225.459716 226.368 
L 225.538977 209.088 
L 225.618239 157.248 
L 225.776761 209.088 
L 226.014545 209.088 
L 226.173068 226.368 
L 226.490114 165.888 
L 226.648636 226.368 
L 226.807159 209.088 
L 227.124205 209.088 
L 227.282727 226.368 
L 227.44125 226.368 
L 227.599773 209.088 
L 228.075341 209.088 
L 228.154602 226.368 
L 228.313125 209.088 
L 228.867955 209.088 
L 229.026477 226.368 
L 229.185 209.088 
L 229.502045 209.088 
L 229.581307 243.648 
L 229.660568 226.368 
L 229.73983 243.648 
L 229.977614 209.088 
L 230.37392 209.088 
L 230.532443 226.368 
L 230.690966 226.368 
L 230.770227 209.088 
L 230.849489 243.648 
L 231.008011 209.088 
L 231.087273 209.088 
L 231.245795 226.368 
L 231.325057 226.368 
L 231.48358 209.088 
L 232.196932 209.088 
L 232.276193 226.368 
L 232.355455 209.088 
L 232.434716 226.368 
L 232.593239 209.088 
L 232.910284 209.088 
L 233.068807 226.368 
L 233.148068 226.368 
L 233.306591 209.088 
L 233.544375 209.088 
L 233.702898 226.368 
L 233.86142 209.088 
L 234.654034 209.088 
L 234.733295 226.368 
L 234.812557 209.088 
L 234.891818 226.368 
L 234.97108 209.088 
L 235.050341 226.368 
L 235.129602 157.248 
L 235.288125 226.368 
L 235.684432 226.368 
L 235.842955 209.088 
L 236.239261 209.088 
L 236.397784 226.368 
L 236.556307 209.088 
L 236.952614 209.088 
L 237.031875 226.368 
L 237.111136 157.248 
L 237.269659 209.088 
L 237.90375 209.088 
L 237.983011 174.528 
L 238.141534 209.088 
L 238.300057 226.368 
L 238.379318 226.368 
L 238.537841 209.088 
L 238.696364 209.088 
L 238.854886 226.368 
L 239.013409 226.368 
L 239.171932 209.088 
L 239.330455 226.368 
L 239.568239 226.368 
L 239.726761 209.088 
L 239.806023 209.088 
L 239.964545 226.368 
L 240.043807 226.368 
L 240.20233 243.648 
L 240.360852 226.368 
L 240.598636 226.368 
L 240.677898 209.088 
L 240.757159 226.368 
L 240.915682 209.088 
L 241.074205 209.088 
L 241.153466 226.368 
L 241.232727 139.968 
L 241.311989 226.368 
L 241.39125 174.528 
L 241.549773 209.088 
L 241.708295 226.368 
L 241.94608 226.368 
L 242.104602 209.088 
L 242.263125 226.368 
L 242.421648 209.088 
L 242.500909 209.088 
L 242.58017 226.368 
L 242.738693 209.088 
L 243.769091 209.088 
L 243.927614 226.368 
L 244.006875 209.088 
L 244.165398 157.248 
L 244.244659 139.968 
L 244.403182 209.088 
L 244.482443 226.368 
L 244.799489 157.248 
L 244.958011 226.368 
L 245.195795 226.368 
L 245.354318 209.088 
L 245.43358 209.088 
L 245.592102 226.368 
L 245.671364 226.368 
L 245.988409 174.528 
L 246.226193 174.528 
L 246.384716 226.368 
L 246.463977 226.368 
L 246.6225 209.088 
L 246.939545 209.088 
L 247.098068 191.808 
L 247.256591 157.248 
L 247.415114 209.088 
L 247.573636 226.368 
L 247.732159 209.088 
L 247.81142 209.088 
L 247.969943 226.368 
L 248.049205 226.368 
L 248.207727 191.808 
L 248.36625 209.088 
L 248.683295 209.088 
L 248.762557 174.528 
L 248.92108 226.368 
L 249.000341 226.368 
L 249.158864 209.088 
L 249.238125 209.088 
L 249.396648 226.368 
L 249.55517 209.088 
L 249.713693 209.088 
L 249.872216 226.368 
L 250.189261 157.248 
L 250.427045 226.368 
L 250.585568 200.448 
L 250.66483 200.448 
L 250.902614 226.368 
L 251.061136 209.088 
L 251.140398 209.088 
L 251.219659 191.808 
L 251.29892 226.368 
L 251.457443 209.088 
L 251.615966 209.088 
L 251.85375 243.648 
L 252.091534 209.088 
L 252.250057 209.088 
L 252.40858 226.368 
L 252.567102 226.368 
L 252.646364 209.088 
L 252.725625 226.368 
L 252.804886 209.088 
L 252.963409 226.368 
L 253.04267 226.368 
L 253.121932 243.648 
L 253.280455 209.088 
L 253.5975 209.088 
L 253.756023 226.368 
L 253.835284 226.368 
L 253.914545 200.448 
L 253.993807 209.088 
L 254.073068 200.448 
L 254.231591 209.088 
L 255.024205 209.088 
L 255.182727 157.248 
L 255.34125 209.088 
L 255.499773 209.088 
L 255.658295 226.368 
L 255.737557 226.368 
L 255.89608 139.968 
L 256.133864 226.368 
L 256.292386 226.368 
L 256.450909 209.088 
L 256.53017 209.088 
L 256.609432 226.368 
L 256.688693 209.088 
L 256.767955 226.368 
L 256.926477 209.088 
L 257.243523 209.088 
L 257.322784 226.368 
L 257.402045 209.088 
L 257.481307 226.368 
L 257.63983 209.088 
L 258.353182 209.088 
L 258.511705 53.568 
L 258.670227 157.248 
L 258.749489 157.248 
L 258.908011 70.848 
L 259.066534 209.088 
L 259.145795 209.088 
L 259.225057 174.528 
L 259.38358 209.088 
L 259.700625 209.088 
L 259.859148 200.448 
L 260.01767 209.088 
L 260.255455 209.088 
L 260.334716 157.248 
L 260.493239 191.808 
L 260.651761 209.088 
L 260.731023 209.088 
L 260.889545 226.368 
L 261.048068 226.368 
L 261.12733 243.648 
L 261.365114 157.248 
L 261.523636 209.088 
L 261.76142 209.088 
L 261.840682 226.368 
L 261.999205 209.088 
L 262.078466 200.448 
L 262.236989 209.088 
L 262.554034 209.088 
L 262.712557 226.368 
L 262.87108 209.088 
L 263.822216 209.088 
L 263.980739 226.368 
L 264.06 226.368 
L 264.218523 209.088 
L 264.931875 209.088 
L 265.011136 226.368 
L 265.090398 209.088 
L 265.169659 226.368 
L 265.328182 209.088 
L 265.407443 209.088 
L 265.565966 226.368 
L 265.645227 226.368 
L 265.80375 209.088 
L 265.883011 209.088 
L 265.962273 226.368 
L 266.041534 209.088 
L 266.120795 226.368 
L 266.279318 209.088 
L 266.437841 209.088 
L 266.517102 226.368 
L 266.596364 209.088 
L 266.675625 226.368 
L 266.834148 209.088 
L 268.023068 209.088 
L 268.181591 174.528 
L 268.419375 209.088 
L 268.73642 209.088 
L 268.894943 174.528 
L 269.132727 157.248 
L 269.29125 226.368 
L 269.370511 209.088 
L 269.449773 226.368 
L 269.529034 209.088 
L 269.608295 243.648 
L 269.766818 209.088 
L 269.925341 191.808 
L 270.083864 209.088 
L 270.242386 209.088 
L 270.400909 226.368 
L 270.717955 226.368 
L 270.876477 209.088 
L 271.035 226.368 
L 271.193523 209.088 
L 271.510568 209.088 
L 271.58983 226.368 
L 271.748352 209.088 
L 271.827614 209.088 
L 271.906875 157.248 
L 272.065398 226.368 
L 272.303182 226.368 
L 272.461705 209.088 
L 272.540966 209.088 
L 272.620227 226.368 
L 272.77875 209.088 
L 273.095795 209.088 
L 273.254318 226.368 
L 273.33358 226.368 
L 273.492102 209.088 
L 273.650625 226.368 
L 273.809148 226.368 
L 273.96767 209.088 
L 274.601761 209.088 
L 274.681023 226.368 
L 274.839545 209.088 
L 275.71142 209.088 
L 275.869943 191.808 
L 276.107727 226.368 
L 276.26625 226.368 
L 276.345511 209.088 
L 276.504034 226.368 
L 276.583295 226.368 
L 276.741818 157.248 
L 277.138125 226.368 
L 277.217386 209.088 
L 277.296648 226.368 
L 277.375909 209.088 
L 277.534432 226.368 
L 277.692955 226.368 
L 277.772216 209.088 
L 277.930739 226.368 
L 278.089261 226.368 
L 278.247784 157.248 
L 278.406307 209.088 
L 279.119659 209.088 
L 279.278182 226.368 
L 279.357443 226.368 
L 279.436705 209.088 
L 279.515966 226.368 
L 279.595227 209.088 
L 279.674489 226.368 
L 279.833011 209.088 
L 279.991534 105.408 
L 280.150057 226.368 
L 280.30858 209.088 
L 280.387841 209.088 
L 280.546364 226.368 
L 280.704886 209.088 
L 280.784148 209.088 
L 280.863409 226.368 
L 281.101193 157.248 
L 281.259716 209.088 
L 281.418239 209.088 
L 281.576761 226.368 
L 281.735284 209.088 
L 281.893807 226.368 
L 282.05233 209.088 
L 282.131591 209.088 
L 282.210852 226.368 
L 282.369375 209.088 
L 282.607159 209.088 
L 282.765682 226.368 
L 283.082727 226.368 
L 283.24125 209.088 
L 283.399773 209.088 
L 283.558295 191.808 
L 283.79608 226.368 
L 284.271648 226.368 
L 284.350909 209.088 
L 284.509432 226.368 
L 284.588693 226.368 
L 284.747216 209.088 
L 284.905739 209.088 
L 284.985 226.368 
L 285.064261 157.248 
L 285.222784 209.088 
L 285.460568 209.088 
L 285.698352 243.648 
L 285.777614 243.648 
L 285.936136 209.088 
L 286.332443 209.088 
L 286.490966 226.368 
L 286.570227 226.368 
L 286.72875 209.088 
L 287.125057 209.088 
L 287.204318 226.368 
L 287.362841 209.088 
L 287.838409 209.088 
L 287.996932 226.368 
L 288.076193 226.368 
L 288.234716 209.088 
L 288.393239 226.368 
L 288.551761 226.368 
L 288.710284 209.088 
L 289.344375 209.088 
L 289.423636 226.368 
L 289.582159 209.088 
L 290.21625 209.088 
L 290.295511 226.368 
L 290.374773 209.088 
L 290.454034 226.368 
L 290.612557 209.088 
L 291.642955 209.088 
L 291.801477 226.368 
L 291.96 209.088 
L 292.752614 209.088 
L 292.831875 191.808 
L 292.911136 226.368 
L 292.990398 191.808 
L 293.069659 226.368 
L 293.14892 209.088 
L 293.307443 226.368 
L 293.465966 226.368 
L 293.624489 209.088 
L 293.862273 209.088 
L 293.941534 226.368 
L 294.100057 209.088 
L 294.417102 209.088 
L 294.654886 243.648 
L 294.89267 209.088 
L 295.051193 209.088 
L 295.209716 226.368 
L 295.288977 226.368 
L 295.4475 209.088 
L 296.00233 209.088 
L 296.081591 200.448 
L 296.240114 209.088 
L 296.398636 243.648 
L 296.477898 243.648 
L 296.557159 209.088 
L 296.63642 243.648 
L 296.794943 226.368 
L 296.874205 226.368 
L 297.111989 174.528 
L 297.270511 209.088 
L 297.429034 209.088 
L 297.508295 226.368 
L 297.587557 157.248 
L 297.825341 243.648 
L 297.904602 243.648 
L 298.063125 226.368 
L 298.221648 226.368 
L 298.38017 209.088 
L 299.093523 209.088 
L 299.252045 226.368 
L 299.569091 226.368 
L 299.727614 209.088 
L 299.806875 209.088 
L 299.886136 226.368 
L 300.044659 209.088 
L 300.520227 209.088 
L 300.67875 191.808 
L 300.837273 209.088 
L 301.312841 209.088 
L 301.471364 226.368 
L 301.629886 209.088 
L 301.709148 209.088 
L 301.86767 226.368 
L 301.946932 226.368 
L 302.105455 209.088 
L 302.184716 209.088 
L 302.263977 226.368 
L 302.343239 200.448 
L 302.4225 209.088 
L 302.97733 209.088 
L 303.135852 226.368 
L 303.215114 226.368 
L 303.373636 209.088 
L 303.532159 209.088 
L 303.690682 226.368 
L 303.849205 226.368 
L 304.007727 209.088 
L 304.086989 209.088 
L 304.245511 226.368 
L 304.404034 209.088 
L 304.562557 209.088 
L 304.72108 226.368 
L 304.879602 226.368 
L 304.958864 209.088 
L 305.038125 226.368 
L 305.196648 209.088 
L 305.35517 209.088 
L 305.434432 226.368 
L 305.513693 209.088 
L 305.592955 226.368 
L 305.830739 191.808 
L 305.989261 191.808 
L 306.147784 209.088 
L 306.385568 209.088 
L 306.46483 226.368 
L 306.623352 209.088 
L 306.702614 209.088 
L 306.861136 226.368 
L 306.940398 226.368 
L 307.09892 209.088 
L 307.178182 209.088 
L 307.336705 226.368 
L 307.891534 226.368 
L 308.050057 209.088 
L 308.367102 209.088 
L 308.525625 226.368 
L 308.763409 226.368 
L 308.921932 209.088 
L 309.001193 209.088 
L 309.080455 200.448 
L 309.159716 209.088 
L 309.3975 191.808 
L 309.556023 209.088 
L 309.714545 209.088 
L 309.873068 226.368 
L 309.95233 226.368 
L 310.110852 209.088 
L 310.348636 209.088 
L 310.427898 226.368 
L 310.507159 157.248 
L 310.665682 226.368 
L 310.744943 226.368 
L 310.903466 209.088 
L 311.14125 209.088 
L 311.220511 226.368 
L 311.458295 174.528 
L 311.537557 209.088 
L 311.616818 157.248 
L 311.775341 209.088 
L 311.933864 226.368 
L 312.092386 209.088 
L 312.885 209.088 
L 313.043523 226.368 
L 313.122784 226.368 
L 313.281307 209.088 
L 313.519091 209.088 
L 313.598352 200.448 
L 313.756875 174.528 
L 313.836136 174.528 
L 313.915398 157.248 
L 313.994659 226.368 
L 314.07392 209.088 
L 315.18358 209.088 
L 315.342102 226.368 
L 315.500625 209.088 
L 315.659148 226.368 
L 315.81767 209.088 
L 315.976193 226.368 
L 316.293239 226.368 
L 316.451761 209.088 
L 316.610284 209.088 
L 316.768807 226.368 
L 316.92733 226.368 
L 317.085852 209.088 
L 317.402898 209.088 
L 317.56142 226.368 
L 317.640682 226.368 
L 317.799205 209.088 
L 318.11625 209.088 
L 318.274773 226.368 
L 318.750341 226.368 
L 318.988125 157.248 
L 319.146648 105.408 
L 319.30517 226.368 
L 319.622216 226.368 
L 319.780739 209.088 
L 320.018523 209.088 
L 320.177045 226.368 
L 320.335568 226.368 
L 320.494091 209.088 
L 320.811136 209.088 
L 321.04892 243.648 
L 321.286705 209.088 
L 321.365966 209.088 
L 321.524489 226.368 
L 321.60375 226.368 
L 321.762273 209.088 
L 321.841534 209.088 
L 321.920795 226.368 
L 322.079318 209.088 
L 322.15858 209.088 
L 322.317102 226.368 
L 322.475625 209.088 
L 322.634148 209.088 
L 322.79267 174.528 
L 322.871932 174.528 
L 323.030455 157.248 
L 323.188977 209.088 
L 323.585284 209.088 
L 323.743807 226.368 
L 323.823068 226.368 
L 323.90233 243.648 
L 324.060852 226.368 
L 324.932727 226.368 
L 325.09125 209.088 
L 325.329034 209.088 
L 325.487557 226.368 
L 325.64608 209.088 
L 325.804602 226.368 
L 325.963125 209.088 
L 326.517955 209.088 
L 326.597216 226.368 
L 326.676477 209.088 
L 326.835 226.368 
L 326.914261 226.368 
L 327.072784 209.088 
L 327.231307 226.368 
L 327.38983 209.088 
L 327.548352 226.368 
L 327.706875 209.088 
L 327.865398 209.088 
L 328.02392 226.368 
L 328.182443 209.088 
L 328.261705 209.088 
L 328.420227 226.368 
L 328.975057 226.368 
L 329.13358 209.088 
L 329.292102 209.088 
L 329.371364 226.368 
L 329.450625 209.088 
L 329.529886 226.368 
L 329.688409 209.088 
L 330.084716 209.088 
L 330.243239 226.368 
L 330.401761 209.088 
L 331.194375 209.088 
L 331.352898 226.368 
L 331.51142 157.248 
L 331.669943 226.368 
L 331.828466 226.368 
L 331.986989 209.088 
L 332.06625 209.088 
L 332.145511 226.368 
L 332.224773 209.088 
L 332.383295 157.248 
L 332.541818 209.088 
L 332.779602 209.088 
L 332.938125 226.368 
L 333.017386 226.368 
L 333.175909 209.088 
L 333.651477 209.088 
L 333.730739 191.808 
L 333.968523 226.368 
L 334.127045 209.088 
L 334.523352 209.088 
L 334.681875 226.368 
L 335.712273 226.368 
L 335.870795 209.088 
L 336.346364 209.088 
L 336.504886 226.368 
L 336.663409 226.368 
L 336.821932 209.088 
L 336.980455 226.368 
L 337.138977 209.088 
L 337.2975 226.368 
L 337.456023 209.088 
L 337.693807 209.088 
L 337.85233 226.368 
L 338.090114 174.528 
L 338.248636 209.088 
L 338.327898 226.368 
L 338.407159 209.088 
L 338.48642 226.368 
L 338.644943 209.088 
L 338.803466 209.088 
L 338.961989 226.368 
L 339.04125 226.368 
L 339.199773 209.088 
L 339.913125 209.088 
L 339.992386 157.248 
L 340.150909 209.088 
L 340.23017 209.088 
L 340.309432 226.368 
L 340.388693 209.088 
L 340.467955 226.368 
L 340.626477 209.088 
L 340.705739 209.088 
L 340.864261 226.368 
L 340.943523 226.368 
L 341.102045 209.088 
L 341.181307 209.088 
L 341.33983 226.368 
L 341.419091 226.368 
L 341.498352 209.088 
L 341.577614 226.368 
L 341.736136 209.088 
L 341.815398 209.088 
L 341.894659 200.448 
L 342.211705 226.368 
L 342.608011 226.368 
L 342.766534 209.088 
L 342.845795 209.088 
L 342.925057 226.368 
L 343.004318 209.088 
L 343.08358 226.368 
L 343.242102 209.088 
L 343.321364 209.088 
L 343.400625 157.248 
L 343.479886 226.368 
L 343.559148 209.088 
L 343.638409 226.368 
L 343.796932 209.088 
L 343.876193 209.088 
L 344.034716 226.368 
L 344.193239 209.088 
L 344.82733 209.088 
L 344.906591 226.368 
L 345.065114 209.088 
L 345.144375 209.088 
L 345.302898 226.368 
L 345.540682 226.368 
L 345.699205 209.088 
L 345.778466 209.088 
L 345.936989 226.368 
L 346.095511 209.088 
L 346.57108 209.088 
L 346.650341 243.648 
L 346.808864 209.088 
L 347.20517 209.088 
L 347.284432 226.368 
L 347.442955 209.088 
L 347.680739 209.088 
L 347.839261 200.448 
L 347.997784 209.088 
L 348.235568 209.088 
L 348.473352 243.648 
L 348.631875 209.088 
L 348.711136 209.088 
L 348.869659 226.368 
L 349.028182 226.368 
L 349.186705 209.088 
L 349.265966 209.088 
L 349.345227 191.808 
L 349.424489 209.088 
L 349.50375 165.888 
L 349.662273 209.088 
L 349.741534 226.368 
L 349.820795 209.088 
L 349.979318 226.368 
L 350.137841 226.368 
L 350.296364 209.088 
L 350.69267 209.088 
L 350.771932 226.368 
L 350.930455 209.088 
L 351.088977 209.088 
L 351.2475 226.368 
L 351.326761 226.368 
L 351.485284 209.088 
L 352.119375 209.088 
L 352.277898 226.368 
L 352.43642 209.088 
L 352.753466 209.088 
L 352.832727 226.368 
L 352.99125 209.088 
L 353.704602 209.088 
L 353.783864 226.368 
L 353.942386 209.088 
L 354.259432 209.088 
L 354.417955 226.368 
L 354.497216 226.368 
L 354.576477 174.528 
L 354.655739 226.368 
L 354.735 174.528 
L 354.814261 226.368 
L 354.893523 157.248 
L 354.972784 174.528 
L 355.052045 174.528 
L 355.210568 209.088 
L 355.448352 209.088 
L 355.606875 226.368 
L 355.765398 226.368 
L 355.92392 209.088 
L 356.47875 209.088 
L 356.637273 226.368 
L 356.795795 209.088 
L 356.875057 209.088 
L 357.03358 200.448 
L 357.350625 226.368 
L 357.509148 226.368 
L 357.66767 209.088 
L 358.063977 209.088 
L 358.143239 226.368 
L 358.301761 209.088 
L 358.698068 209.088 
L 358.77733 226.368 
L 359.094375 174.528 
L 359.332159 209.088 
L 359.807727 209.088 
L 359.96625 226.368 
L 360.045511 226.368 
L 360.204034 209.088 
L 360.362557 226.368 
L 360.52108 226.368 
L 360.679602 209.088 
L 360.758864 209.088 
L 360.917386 226.368 
L 360.996648 226.368 
L 361.15517 209.088 
L 363.136705 209.088 
L 363.215966 226.368 
L 363.295227 165.888 
L 363.45375 209.088 
L 363.770795 209.088 
L 363.929318 226.368 
L 364.087841 209.088 
L 364.246364 226.368 
L 364.64267 226.368 
L 364.801193 209.088 
L 364.880455 209.088 
L 364.959716 200.448 
L 365.038977 226.368 
L 365.118239 209.088 
L 365.276761 226.368 
L 365.356023 226.368 
L 365.514545 209.088 
L 365.673068 226.368 
L 365.75233 209.088 
L 365.910852 157.248 
L 366.069375 226.368 
L 366.227898 209.088 
L 366.307159 139.968 
L 366.465682 209.088 
L 366.624205 209.088 
L 366.782727 226.368 
L 366.94125 209.088 
L 367.179034 209.088 
L 367.337557 226.368 
L 367.416818 226.368 
L 367.575341 209.088 
L 368.288693 209.088 
L 368.447216 226.368 
L 368.843523 226.368 
L 369.002045 209.088 
L 369.23983 209.088 
L 369.319091 226.368 
L 369.477614 209.088 
L 370.42875 209.088 
L 370.587273 226.368 
L 370.745795 226.368 
L 370.904318 209.088 
L 371.776193 209.088 
L 371.855455 191.808 
L 371.934716 226.368 
L 372.093239 209.088 
L 372.410284 209.088 
L 372.489545 200.448 
L 372.648068 157.248 
L 372.806591 226.368 
L 372.965114 209.088 
L 373.202898 209.088 
L 373.36142 226.368 
L 373.440682 226.368 
L 373.519943 209.088 
L 373.678466 226.368 
L 373.757727 226.368 
L 373.91625 157.248 
L 373.995511 174.528 
L 374.074773 157.248 
L 374.233295 209.088 
L 374.47108 209.088 
L 374.629602 139.968 
L 374.708864 139.968 
L 374.867386 209.088 
L 375.184432 209.088 
L 375.342955 226.368 
L 375.422216 226.368 
L 375.580739 209.088 
L 375.66 209.088 
L 375.897784 243.648 
L 376.135568 209.088 
L 376.452614 209.088 
L 376.611136 226.368 
L 376.690398 226.368 
L 376.769659 209.088 
L 376.84892 226.368 
L 377.007443 209.088 
L 377.086705 209.088 
L 377.245227 226.368 
L 377.324489 226.368 
L 377.483011 209.088 
L 377.562273 209.088 
L 377.720795 226.368 
L 377.800057 226.368 
L 377.95858 209.088 
L 378.671932 209.088 
L 378.830455 226.368 
L 378.909716 226.368 
L 379.068239 209.088 
L 379.1475 209.088 
L 379.226761 226.368 
L 379.306023 209.088 
L 379.385284 226.368 
L 379.464545 209.088 
L 379.543807 226.368 
L 379.70233 209.088 
L 379.940114 209.088 
L 380.098636 226.368 
L 380.257159 209.088 
L 380.415682 209.088 
L 380.574205 226.368 
L 380.653466 226.368 
L 380.732727 209.088 
L 380.811989 226.368 
L 380.970511 209.088 
L 381.049773 209.088 
L 381.208295 226.368 
L 381.44608 226.368 
L 381.604602 174.528 
L 381.763125 209.088 
L 382.635 209.088 
L 382.714261 200.448 
L 383.031307 226.368 
L 383.18983 209.088 
L 383.348352 209.088 
L 383.506875 226.368 
L 383.665398 226.368 
L 383.82392 209.088 
L 383.982443 209.088 
L 384.140966 226.368 
L 384.299489 226.368 
L 384.458011 209.088 
L 386.1225 209.088 
L 386.281023 226.368 
L 386.598068 226.368 
L 386.756591 209.088 
L 386.915114 226.368 
L 387.073636 209.088 
L 388.024773 209.088 
L 388.183295 226.368 
L 388.262557 226.368 
L 388.42108 209.088 
L 388.738125 209.088 
L 388.896648 226.368 
L 388.975909 226.368 
L 389.134432 209.088 
L 389.451477 209.088 
L 389.61 226.368 
L 389.768523 226.368 
L 389.847784 209.088 
L 389.927045 243.648 
L 390.085568 226.368 
L 390.244091 226.368 
L 390.402614 209.088 
L 390.481875 209.088 
L 390.719659 243.648 
L 390.79892 243.648 
L 390.957443 209.088 
L 391.195227 209.088 
L 391.35375 226.368 
L 391.433011 226.368 
L 391.591534 191.808 
L 391.750057 209.088 
L 392.067102 209.088 
L 392.146364 226.368 
L 392.304886 157.248 
L 392.384148 157.248 
L 392.54267 209.088 
L 392.701193 96.768 
L 392.780455 105.408 
L 392.938977 209.088 
L 393.0975 209.088 
L 393.256023 226.368 
L 393.335284 226.368 
L 393.493807 209.088 
L 393.731591 209.088 
L 393.890114 226.368 
L 394.048636 209.088 
L 394.207159 226.368 
L 394.444943 226.368 
L 394.524205 191.808 
L 394.603466 226.368 
L 394.682727 209.088 
L 394.761989 226.368 
L 394.999773 157.248 
L 395.158295 200.448 
L 395.475341 226.368 
L 395.554602 226.368 
L 395.633864 209.088 
L 395.713125 226.368 
L 395.871648 209.088 
L 395.950909 209.088 
L 396.109432 226.368 
L 396.267955 209.088 
L 396.505739 209.088 
L 396.585 226.368 
L 396.664261 209.088 
L 396.822784 157.248 
L 396.981307 209.088 
L 397.456875 209.088 
L 397.536136 157.248 
L 397.694659 209.088 
L 398.011705 209.088 
L 398.170227 243.648 
L 398.408011 209.088 
L 398.487273 226.368 
L 398.487273 226.368 
" clip-path="url(#p63aba4559b)" style="fill: none; stroke: #1f77b4; stroke-width: 1.5; stroke-linecap: square"/>
   </g>
   <g id="patch_3">
    <path d="M 57.6 307.584 
L 57.6 41.472 
" style="fill: none; stroke: #000000; stroke-width: 0.8; stroke-linejoin: miter; stroke-linecap: square"/>
   </g>
   <g id="patch_4">
    <path d="M 414.72 307.584 
L 414.72 41.472 
" style="fill: none; stroke: #000000; stroke-width: 0.8; stroke-linejoin: miter; stroke-linecap: square"/>
   </g>
   <g id="patch_5">
    <path d="M 57.6 307.584 
L 414.72 307.584 
" style="fill: none; stroke: #000000; stroke-width: 0.8; stroke-linejoin: miter; stroke-linecap: square"/>
   </g>
   <g id="patch_6">
    <path d="M 57.6 41.472 
L 414.72 41.472 
" style="fill: none; stroke: #000000; stroke-width: 0.8; stroke-linejoin: miter; stroke-linecap: square"/>
   </g>
   <g id="text_14">
    <!-- LEA Key Schedule -->
    <g transform="translate(182.656875 35.472) scale(0.12 -0.12)">
     <defs>
      <path id="DejaVuSans-4c" d="M 628 4666 
L 1259 4666 
L 1259 531 
L 3531 531 
L 3531 0 
L 628 0 
L 628 4666 
z
" transform="scale(0.015625)"/>
      <path id="DejaVuSans-45" d="M 628 4666 
L 3578 4666 
L 3578 4134 
L 1259 4134 
L 1259 2753 
L 3481 2753 
L 3481 2222 
L 1259 2222 
L 1259 531 
L 3634 531 
L 3634 0 
L 628 0 
L 628 4666 
z
" transform="scale(0.015625)"/>
      <path id="DejaVuSans-41" d="M 2188 4044 
L 1331 1722 
L 3047 1722 
L 2188 4044 
z
M 1831 4666 
L 2547 4666 
L 4325 0 
L 3669 0 
L 3244 1197 
L 1141 1197 
L 716 0 
L 50 0 
L 1831 4666 
z
" transform="scale(0.015625)"/>
      <path id="DejaVuSans-20" transform="scale(0.015625)"/>
      <path id="DejaVuSans-4b" d="M 628 4666 
L 1259 4666 
L 1259 2694 
L 3353 4666 
L 4166 4666 
L 1850 2491 
L 4331 0 
L 3500 0 
L 1259 2247 
L 1259 0 
L 628 0 
L 628 4666 
z
" transform="scale(0.015625)"/>
      <path id="DejaVuSans-53" d="M 3425 4513 
L 3425 3897 
Q 3066 4069 2747 4153 
Q 2428 4238 2131 4238 
Q 1616 4238 1336 4038 
Q 1056 3838 1056 3469 
Q 1056 3159 1242 3001 
Q 1428 2844 1947 2747 
L 2328 2669 
Q 3034 2534 3370 2195 
Q 3706 1856 3706 1288 
Q 3706 609 3251 259 
Q 2797 -91 1919 -91 
Q 1588 -91 1214 -16 
Q 841 59 441 206 
L 441 856 
Q 825 641 1194 531 
Q 1563 422 1919 422 
Q 2459 422 2753 634 
Q 3047 847 3047 1241 
Q 3047 1584 2836 1778 
Q 2625 1972 2144 2069 
L 1759 2144 
Q 1053 2284 737 2584 
Q 422 2884 422 3419 
Q 422 4038 858 4394 
Q 1294 4750 2059 4750 
Q 2388 4750 2728 4690 
Q 3069 4631 3425 4513 
z
" transform="scale(0.015625)"/>
      <path id="DejaVuSans-68" d="M 3513 2113 
L 3513 0 
L 2938 0 
L 2938 2094 
Q 2938 2591 2744 2837 
Q 2550 3084 2163 3084 
Q 1697 3084 1428 2787 
Q 1159 2491 1159 1978 
L 1159 0 
L 581 0 
L 581 4863 
L 1159 4863 
L 1159 2956 
Q 1366 3272 1645 3428 
Q 1925 3584 2291 3584 
Q 2894 3584 3203 3211 
Q 3513 2838 3513 2113 
z
" transform="scale(0.015625)"/>
      <path id="DejaVuSans-64" d="M 2906 2969 
L 2906 4863 
L 3481 4863 
L 3481 0 
L 2906 0 
L 2906 525 
Q 2725 213 2448 61 
Q 2172 -91 1784 -91 
Q 1150 -91 751 415 
Q 353 922 353 1747 
Q 353 2572 751 3078 
Q 1150 3584 1784 3584 
Q 2172 3584 2448 3432 
Q 2725 3281 2906 2969 
z
M 947 1747 
Q 947 1113 1208 752 
Q 1469 391 1925 391 
Q 2381 391 2643 752 
Q 2906 1113 2906 1747 
Q 2906 2381 2643 2742 
Q 2381 3103 1925 3103 
Q 1469 3103 1208 2742 
Q 947 2381 947 1747 
z
" transform="scale(0.015625)"/>
      <path id="DejaVuSans-75" d="M 544 1381 
L 544 3500 
L 1119 3500 
L 1119 1403 
Q 1119 906 1312 657 
Q 1506 409 1894 409 
Q 2359 409 2629 706 
Q 2900 1003 2900 1516 
L 2900 3500 
L 3475 3500 
L 3475 0 
L 2900 0 
L 2900 538 
Q 2691 219 2414 64 
Q 2138 -91 1772 -91 
Q 1169 -91 856 284 
Q 544 659 544 1381 
z
M 1991 3584 
L 1991 3584 
z
" transform="scale(0.015625)"/>
     </defs>
     <use xlink:href="#DejaVuSans-4c"/>
     <use xlink:href="#DejaVuSans-45" x="55.712891"/>
     <use xlink:href="#DejaVuSans-41" x="118.896484"/>
     <use xlink:href="#DejaVuSans-20" x="187.304688"/>
     <use xlink:href="#DejaVuSans-4b" x="219.091797"/>
     <use xlink:href="#DejaVuSans-65" x="279.667969"/>
     <use xlink:href="#DejaVuSans-79" x="341.191406"/>
     <use xlink:href="#DejaVuSans-20" x="400.371094"/>
     <use xlink:href="#DejaVuSans-53" x="432.158203"/>
     <use xlink:href="#DejaVuSans-63" x="495.634766"/>
     <use xlink:href="#DejaVuSans-68" x="550.615234"/>
     <use xlink:href="#DejaVuSans-65" x="613.994141"/>
     <use xlink:href="#DejaVuSans-64" x="675.517578"/>
     <use xlink:href="#DejaVuSans-75" x="738.994141"/>
     <use xlink:href="#DejaVuSans-6c" x="802.373047"/>
     <use xlink:href="#DejaVuSans-65" x="830.15625"/>
    </g>
   </g>
   <g id="legend_1">
    <g id="patch_7">
     <path d="M 106.530937 64.150125 
L 407.72 64.150125 
Q 409.72 64.150125 409.72 62.150125 
L 409.72 48.472 
Q 409.72 46.472 407.72 46.472 
L 106.530937 46.472 
Q 104.530937 46.472 104.530937 48.472 
L 104.530937 62.150125 
Q 104.530937 64.150125 106.530937 64.150125 
z
" style="fill: #ffffff; opacity: 0.8; stroke: #cccccc; stroke-linejoin: miter"/>
    </g>
    <g id="line2d_13">
     <path d="M 108.530937 54.570438 
L 118.530937 54.570438 
L 128.530937 54.570438 
" style="fill: none; stroke: #1f77b4; stroke-width: 1.5; stroke-linecap: square"/>
    </g>
    <g id="text_15">
     <!-- Median filtered key schedule algorithm cycles per run -->
     <g transform="translate(136.530937 58.070438) scale(0.1 -0.1)">
      <defs>
       <path id="DejaVuSans-4d" d="M 628 4666 
L 1569 4666 
L 2759 1491 
L 3956 4666 
L 4897 4666 
L 4897 0 
L 4281 0 
L 4281 4097 
L 3078 897 
L 2444 897 
L 1241 4097 
L 1241 0 
L 628 0 
L 628 4666 
z
" transform="scale(0.015625)"/>
       <path id="DejaVuSans-69" d="M 603 3500 
L 1178 3500 
L 1178 0 
L 603 0 
L 603 3500 
z
M 603 4863 
L 1178 4863 
L 1178 4134 
L 603 4134 
L 603 4863 
z
" transform="scale(0.015625)"/>
       <path id="DejaVuSans-61" d="M 2194 1759 
Q 1497 1759 1228 1600 
Q 959 1441 959 1056 
Q 959 750 1161 570 
Q 1363 391 1709 391 
Q 2188 391 2477 730 
Q 2766 1069 2766 1631 
L 2766 1759 
L 2194 1759 
z
M 3341 1997 
L 3341 0 
L 2766 0 
L 2766 531 
Q 2569 213 2275 61 
Q 1981 -91 1556 -91 
Q 1019 -91 701 211 
Q 384 513 384 1019 
Q 384 1609 779 1909 
Q 1175 2209 1959 2209 
L 2766 2209 
L 2766 2266 
Q 2766 2663 2505 2880 
Q 2244 3097 1772 3097 
Q 1472 3097 1187 3025 
Q 903 2953 641 2809 
L 641 3341 
Q 956 3463 1253 3523 
Q 1550 3584 1831 3584 
Q 2591 3584 2966 3190 
Q 3341 2797 3341 1997 
z
" transform="scale(0.015625)"/>
       <path id="DejaVuSans-66" d="M 2375 4863 
L 2375 4384 
L 1825 4384 
Q 1516 4384 1395 4259 
Q 1275 4134 1275 3809 
L 1275 3500 
L 2222 3500 
L 2222 3053 
L 1275 3053 
L 1275 0 
L 697 0 
L 697 3053 
L 147 3053 
L 147 3500 
L 697 3500 
L 697 3744 
Q 697 4328 969 4595 
Q 1241 4863 1831 4863 
L 2375 4863 
z
" transform="scale(0.015625)"/>
       <path id="DejaVuSans-74" d="M 1172 4494 
L 1172 3500 
L 2356 3500 
L 2356 3053 
L 1172 3053 
L 1172 1153 
Q 1172 725 1289 603 
Q 1406 481 1766 481 
L 2356 481 
L 2356 0 
L 1766 0 
Q 1100 0 847 248 
Q 594 497 594 1153 
L 594 3053 
L 172 3053 
L 172 3500 
L 594 3500 
L 594 4494 
L 1172 4494 
z
" transform="scale(0.015625)"/>
       <path id="DejaVuSans-72" d="M 2631 2963 
Q 2534 3019 2420 3045 
Q 2306 3072 2169 3072 
Q 1681 3072 1420 2755 
Q 1159 2438 1159 1844 
L 1159 0 
L 581 0 
L 581 3500 
L 1159 3500 
L 1159 2956 
Q 1341 3275 1631 3429 
Q 1922 3584 2338 3584 
Q 2397 3584 2469 3576 
Q 2541 3569 2628 3553 
L 2631 2963 
z
" transform="scale(0.015625)"/>
       <path id="DejaVuSans-6b" d="M 581 4863 
L 1159 4863 
L 1159 1991 
L 2875 3500 
L 3609 3500 
L 1753 1863 
L 3688 0 
L 2938 0 
L 1159 1709 
L 1159 0 
L 581 0 
L 581 4863 
z
" transform="scale(0.015625)"/>
       <path id="DejaVuSans-67" d="M 2906 1791 
Q 2906 2416 2648 2759 
Q 2391 3103 1925 3103 
Q 1463 3103 1205 2759 
Q 947 2416 947 1791 
Q 947 1169 1205 825 
Q 1463 481 1925 481 
Q 2391 481 2648 825 
Q 2906 1169 2906 1791 
z
M 3481 434 
Q 3481 -459 3084 -895 
Q 2688 -1331 1869 -1331 
Q 1566 -1331 1297 -1286 
Q 1028 -1241 775 -1147 
L 775 -588 
Q 1028 -725 1275 -790 
Q 1522 -856 1778 -856 
Q 2344 -856 2625 -561 
Q 2906 -266 2906 331 
L 2906 616 
Q 2728 306 2450 153 
Q 2172 0 1784 0 
Q 1141 0 747 490 
Q 353 981 353 1791 
Q 353 2603 747 3093 
Q 1141 3584 1784 3584 
Q 2172 3584 2450 3431 
Q 2728 3278 2906 2969 
L 2906 3500 
L 3481 3500 
L 3481 434 
z
" transform="scale(0.015625)"/>
       <path id="DejaVuSans-6f" d="M 1959 3097 
Q 1497 3097 1228 2736 
Q 959 2375 959 1747 
Q 959 1119 1226 758 
Q 1494 397 1959 397 
Q 2419 397 2687 759 
Q 2956 1122 2956 1747 
Q 2956 2369 2687 2733 
Q 2419 3097 1959 3097 
z
M 1959 3584 
Q 2709 3584 3137 3096 
Q 3566 2609 3566 1747 
Q 3566 888 3137 398 
Q 2709 -91 1959 -91 
Q 1206 -91 779 398 
Q 353 888 353 1747 
Q 353 2609 779 3096 
Q 1206 3584 1959 3584 
z
" transform="scale(0.015625)"/>
       <path id="DejaVuSans-6d" d="M 3328 2828 
Q 3544 3216 3844 3400 
Q 4144 3584 4550 3584 
Q 5097 3584 5394 3201 
Q 5691 2819 5691 2113 
L 5691 0 
L 5113 0 
L 5113 2094 
Q 5113 2597 4934 2840 
Q 4756 3084 4391 3084 
Q 3944 3084 3684 2787 
Q 3425 2491 3425 1978 
L 3425 0 
L 2847 0 
L 2847 2094 
Q 2847 2600 2669 2842 
Q 2491 3084 2119 3084 
Q 1678 3084 1418 2786 
Q 1159 2488 1159 1978 
L 1159 0 
L 581 0 
L 581 3500 
L 1159 3500 
L 1159 2956 
Q 1356 3278 1631 3431 
Q 1906 3584 2284 3584 
Q 2666 3584 2933 3390 
Q 3200 3197 3328 2828 
z
" transform="scale(0.015625)"/>
       <path id="DejaVuSans-70" d="M 1159 525 
L 1159 -1331 
L 581 -1331 
L 581 3500 
L 1159 3500 
L 1159 2969 
Q 1341 3281 1617 3432 
Q 1894 3584 2278 3584 
Q 2916 3584 3314 3078 
Q 3713 2572 3713 1747 
Q 3713 922 3314 415 
Q 2916 -91 2278 -91 
Q 1894 -91 1617 61 
Q 1341 213 1159 525 
z
M 3116 1747 
Q 3116 2381 2855 2742 
Q 2594 3103 2138 3103 
Q 1681 3103 1420 2742 
Q 1159 2381 1159 1747 
Q 1159 1113 1420 752 
Q 1681 391 2138 391 
Q 2594 391 2855 752 
Q 3116 1113 3116 1747 
z
" transform="scale(0.015625)"/>
      </defs>
      <use xlink:href="#DejaVuSans-4d"/>
      <use xlink:href="#DejaVuSans-65" x="86.279297"/>
      <use xlink:href="#DejaVuSans-64" x="147.802734"/>
      <use xlink:href="#DejaVuSans-69" x="211.279297"/>
      <use xlink:href="#DejaVuSans-61" x="239.0625"/>
      <use xlink:href="#DejaVuSans-6e" x="300.341797"/>
      <use xlink:href="#DejaVuSans-20" x="363.720703"/>
      <use xlink:href="#DejaVuSans-66" x="395.507812"/>
      <use xlink:href="#DejaVuSans-69" x="430.712891"/>
      <use xlink:href="#DejaVuSans-6c" x="458.496094"/>
      <use xlink:href="#DejaVuSans-74" x="486.279297"/>
      <use xlink:href="#DejaVuSans-65" x="525.488281"/>
      <use xlink:href="#DejaVuSans-72" x="587.011719"/>
      <use xlink:href="#DejaVuSans-65" x="625.875"/>
      <use xlink:href="#DejaVuSans-64" x="687.398438"/>
      <use xlink:href="#DejaVuSans-20" x="750.875"/>
      <use xlink:href="#DejaVuSans-6b" x="782.662109"/>
      <use xlink:href="#DejaVuSans-65" x="836.947266"/>
      <use xlink:href="#DejaVuSans-79" x="898.470703"/>
      <use xlink:href="#DejaVuSans-20" x="957.650391"/>
      <use xlink:href="#DejaVuSans-73" x="989.4375"/>
      <use xlink:href="#DejaVuSans-63" x="1041.537109"/>
      <use xlink:href="#DejaVuSans-68" x="1096.517578"/>
      <use xlink:href="#DejaVuSans-65" x="1159.896484"/>
      <use xlink:href="#DejaVuSans-64" x="1221.419922"/>
      <use xlink:href="#DejaVuSans-75" x="1284.896484"/>
      <use xlink:href="#DejaVuSans-6c" x="1348.275391"/>
      <use xlink:href="#DejaVuSans-65" x="1376.058594"/>
      <use xlink:href="#DejaVuSans-20" x="1437.582031"/>
      <use xlink:href="#DejaVuSans-61" x="1469.369141"/>
      <use xlink:href="#DejaVuSans-6c" x="1530.648438"/>
      <use xlink:href="#DejaVuSans-67" x="1558.431641"/>
      <use xlink:href="#DejaVuSans-6f" x="1621.908203"/>
      <use xlink:href="#DejaVuSans-72" x="1683.089844"/>
      <use xlink:href="#DejaVuSans-69" x="1724.203125"/>
      <use xlink:href="#DejaVuSans-74" x="1751.986328"/>
      <use xlink:href="#DejaVuSans-68" x="1791.195312"/>
      <use xlink:href="#DejaVuSans-6d" x="1854.574219"/>
      <use xlink:href="#DejaVuSans-20" x="1951.986328"/>
      <use xlink:href="#DejaVuSans-63" x="1983.773438"/>
      <use xlink:href="#DejaVuSans-79" x="2038.753906"/>
      <use xlink:href="#DejaVuSans-63" x="2097.933594"/>
      <use xlink:href="#DejaVuSans-6c" x="2152.914062"/>
      <use xlink:href="#DejaVuSans-65" x="2180.697266"/>
      <use xlink:href="#DejaVuSans-73" x="2242.220703"/>
      <use xlink:href="#DejaVuSans-20" x="2294.320312"/>
      <use xlink:href="#DejaVuSans-70" x="2326.107422"/>
      <use xlink:href="#DejaVuSans-65" x="2389.583984"/>
      <use xlink:href="#DejaVuSans-72" x="2451.107422"/>
      <use xlink:href="#DejaVuSans-20" x="2492.220703"/>
      <use xlink:href="#DejaVuSans-72" x="2524.007812"/>
      <use xlink:href="#DejaVuSans-75" x="2565.121094"/>
      <use xlink:href="#DejaVuSans-6e" x="2628.5"/>
     </g>
    </g>
   </g>
  </g>
 </g>
 <defs>
  <clipPath id="p63aba4559b">
   <rect x="57.6" y="41.472" width="357.12" height="266.112"/>
  </clipPath>
 </defs>
</svg>
